<!-- Generated by IcoMoon.io -->
<svg version="1.1" xmlns="http://www.w3.org/2000/svg" width="39" height="32" viewBox="0 0 39 32">
    <title>account-status-check</title>
    <path fill="#23b502"
        d="M27.314 11.314c2.588 6.248-0.379 13.412-6.627 16s-13.412-0.379-16-6.627c-2.588-6.248 0.379-13.412 6.627-16s13.412 0.379 16 6.627z"></path>
    <path fill="#000" opacity="0.2"
        d="M38.916 5.322c-0.376-0.724-1.707-1.22-3.954-1.475-1.231-0.14-3.504-0.266-4.894 0.457-6.352 3.304-11.529 8.493-15.915 13.3l-2.437-4.366c-0.171-0.305-0.571-1.022-4.072-1.308-1.234-0.101-3.454-0.185-4.48 0.388-0.459 0.227-0.769 0.693-0.769 1.23 0 0.251 0.067 0.486 0.185 0.688l-0.003-0.007 6.099 10.923c0.266 0.473 0.847 0.95 3.299 1.228 0.34 0.038 0.799 0.083 1.302 0.114 1.586 0.096 3.683 0.059 4.377-0.71 0.75-0.83 1.509-1.686 2.249-2.511 5.471-6.137 11.129-12.482 18.406-16.267 0.44-0.192 0.742-0.624 0.742-1.126 0-0.203-0.049-0.395-0.137-0.563l0.003 0.007z"></path>
    <path fill="#fff"
        d="M37.623 3.628c-0.42-0.699-1.775-1.115-4.037-1.233-1.237-0.065-3.514-0.053-4.858 0.753-6.14 3.683-10.993 9.177-15.080 14.239l-2.697-4.21c-0.189-0.295-0.631-0.985-4.144-1.059-1.237-0.026-3.462 0.025-4.448 0.659-0.419 0.239-0.696 0.683-0.696 1.192 0 0.28 0.084 0.54 0.228 0.757l-0.003-0.005 6.746 10.533c0.293 0.456 0.903 0.896 3.367 1.025 0.342 0.018 0.799 0.035 1.307 0.035 1.589 0 3.68-0.164 4.326-0.976 0.699-0.874 1.407-1.775 2.093-2.643 5.089-6.457 10.353-13.136 17.386-17.352 0.405-0.206 0.677-0.619 0.677-1.096 0-0.228-0.062-0.441-0.17-0.623l0.003 0.006z"></path>
    <path fill="#23b502"
        d="M29.258 4.030c-6.289 3.772-11.138 9.394-15.703 15.119l-3.47-5.414c-0.513-0.799-8.186-0.904-7.33 0.433l6.746 10.533c0.487 0.761 6.7 0.787 7.33 0 5.843-7.313 11.584-15.336 19.753-20.237 1.342-0.803-5.218-1.695-7.325-0.434z"></path>
</svg>