<svg id="arrow_drop_down_circle_" xmlns="http://www.w3.org/2000/svg" width="28" height="28" viewBox="0 0 28 28">
  <path id="arrow_drop_down_circle_FILL1_wght400_GRAD0_opsz48" d="M17.615,21.6a.511.511,0,0,0,.77,0l3.85-3.85a.548.548,0,0,0,.123-.6.489.489,0,0,0-.507-.315H14.115a.517.517,0,0,0-.35.91ZM18,32a14.2,14.2,0,0,1-5.53-1.067,13.55,13.55,0,0,1-7.4-7.4A14.2,14.2,0,0,1,4,18a14.109,14.109,0,0,1,1.067-5.5A13.664,13.664,0,0,1,8.025,8.06,13.957,13.957,0,0,1,18,4,13.888,13.888,0,0,1,32,18a13.957,13.957,0,0,1-4.06,9.975A13.664,13.664,0,0,1,23.5,30.933,14.109,14.109,0,0,1,18,32Z" transform="translate(-4 -4)" fill="#fff"/>
</svg>
