<svg xmlns="http://www.w3.org/2000/svg" width="214.599" height="39.099" viewBox="0 0 214.599 39.099">
  <g id="iBaas_Logo-2-14" transform="translate(-69.6 -230.775)">
    <path id="Path_52958" data-name="Path 52958"
      d="M81.986,279.9v19.645a2.562,2.562,0,0,1-2.659,2.427H77.9a1.046,1.046,0,0,1-1.1-1V281.327a2.562,2.562,0,0,1,2.659-2.427h1.429A1.047,1.047,0,0,1,81.986,279.9Z"
      transform="translate(-4.807 -32.128)" fill="#ea7625" />
    <g id="Group_54379" data-name="Group 54379" transform="translate(83.727 241.686)">
      <path id="Path_52959" data-name="Path 52959"
        d="M158.936,283.544a8.6,8.6,0,0,1-8.642,8.277H113a.894.894,0,0,1-.9-.9V264.6a.894.894,0,0,1,.9-.9h36.9a8.575,8.575,0,0,1,8.609,7.911,7.338,7.338,0,0,1-1.928,5.485A9.291,9.291,0,0,1,158.936,283.544Zm-41.617-13.761v4.72a.44.44,0,0,0,.432.432h32.742a2.817,2.817,0,0,0,2.825-2.892,2.893,2.893,0,0,0-2.925-2.726H117.784A.454.454,0,0,0,117.319,269.783Zm36.431,13.7c.033-1.6-1.23-3.357-2.826-3.357H117.751a.44.44,0,0,0-.432.432v5.185a.44.44,0,0,0,.432.432h33.041A2.872,2.872,0,0,0,153.75,283.478Z"
        transform="translate(-112.1 -263.667)" fill="#295d93" />
      <path id="Path_52960" data-name="Path 52960"
        d="M317.016,300.972a1.046,1.046,0,0,1-1.1,1H314.49a2.562,2.562,0,0,1-2.659-2.427V291c0-3.258-2.859-7.014-6.515-7.014H286.934a6.254,6.254,0,0,0-6.515,5.95V291c0,3.258,2.925,5.95,6.515,5.95h18.98a2.562,2.562,0,0,1,2.659,2.427V301a1.046,1.046,0,0,1-1.1,1H287.3c-6.681,0-12.1-4.953-12.1-11v-1.1c0-6.083,5.418-11,12.1-11h17.617a12.412,12.412,0,0,1,12.1,12.1Z"
        transform="translate(-220.985 -273.814)" fill="#295d93" />
      <path id="Path_52961" data-name="Path 52961"
        d="M463.416,300.972a1.046,1.046,0,0,1-1.1,1h-1.43a2.562,2.562,0,0,1-2.659-2.427V291c0-3.258-2.859-7.014-6.515-7.014H433.334a6.254,6.254,0,0,0-6.515,5.95V291c0,3.258,2.925,5.95,6.515,5.95h18.98a2.562,2.562,0,0,1,2.659,2.427V301a1.046,1.046,0,0,1-1.1,1H433.7c-6.681,0-12.1-4.953-12.1-11v-1.1c0-6.083,5.418-11,12.1-11h17.617a12.412,12.412,0,0,1,12.1,12.1Z"
        transform="translate(-318.721 -273.814)" fill="#295d93" />
      <path id="Path_52962" data-name="Path 52962"
        d="M618.011,269.251h-35.7c-1.562,0-2.825,1.7-2.825,3.258a2.823,2.823,0,0,0,2.825,2.825h30.381c4.654,0,8.443,3.324,8.443,7.978a8.455,8.455,0,0,1-8.443,8.443H575.63a.894.894,0,0,1-.9-.9V288.8a2.681,2.681,0,0,1,2.692-2.692h35.7a2.825,2.825,0,1,0,0-5.651H582.743c-4.654,0-8.443-3.324-8.443-7.978s3.789-8.875,8.443-8.875h37.063a.894.894,0,0,1,.9.9v2.061A2.681,2.681,0,0,1,618.011,269.251Z"
        transform="translate(-420.663 -263.6)" fill="#295d93" />
    </g>
    <path id="Path_52963" data-name="Path 52963"
      d="M79.572,239.326c-1.463.831-2.925,1.662-4.388,2.559a1,1,0,0,1-1.2,0c-1.363-.831-2.726-1.6-4.122-2.393a.445.445,0,0,1-.266-.465v-5.185a.335.335,0,0,1,.233-.366c1.529-.864,3.025-1.729,4.521-2.626a.4.4,0,0,1,.465,0c1.529.9,3.025,1.762,4.554,2.626.1.066.2.166.2.266Zm-7.147-2.892V237.5a.447.447,0,0,0,.166.3c.6.366,1.23.7,1.828,1.064a.3.3,0,0,0,.332,0c.6-.366,1.23-.7,1.828-1.064a.334.334,0,0,0,.2-.332c0-.7,0-1.429-.033-2.127a.539.539,0,0,0-.166-.3c-.6-.366-1.2-.7-1.795-1.03a.466.466,0,0,0-.366,0c-.632.332-1.23.7-1.828,1.064a.4.4,0,0,0-.166.3C72.392,235.736,72.425,236.1,72.425,236.434Zm2.759-4.687v1.629a.417.417,0,0,0,.2.366c.6.332,1.2.7,1.8,1.03a.334.334,0,0,1,.2.332v2.028a.451.451,0,0,0,.233.432c.4.2.765.432,1.163.665a.472.472,0,0,0,.2.067c0-.067.033-.1.033-.133v-3.989a.539.539,0,0,0-.166-.3c-.366-.233-.765-.432-1.13-.665C76.88,232.711,76.049,232.246,75.184,231.747Z"
      transform="translate(0 0)" fill="#ea7625" />
  </g>
</svg>