<svg xmlns="http://www.w3.org/2000/svg" width="29.894" height="17" viewBox="0 0 29.894 17">
  <g id="Menu_Right_Icon" data-name="Menu Right Icon" transform="translate(1.499 1.5)">
    <path id="Path_11126" data-name="Path 11126"
      d="M0,17.159a1.5,1.5,0,0,1-1.5-1.5V0A1.5,1.5,0,0,1,0-1.5,1.5,1.5,0,0,1,1.5,0v15.66A1.5,1.5,0,0,1,0,17.159Z"
      transform="translate(15.66) rotate(90)" fill="#404040" />
    <path id="Path_11506" data-name="Path 11506"
      d="M0,17.159a1.5,1.5,0,0,1-1.5-1.5V0A1.5,1.5,0,0,1,0-1.5,1.5,1.5,0,0,1,1.5,0v15.66A1.5,1.5,0,0,1,0,17.159Z"
      transform="translate(15.66 14) rotate(90)" fill="#404040" />
    <path id="Path_11507" data-name="Path 11507"
      d="M0,17.159a1.5,1.5,0,0,1-1.5-1.5V0A1.5,1.5,0,0,1,0-1.5,1.5,1.5,0,0,1,1.5,0v15.66A1.5,1.5,0,0,1,0,17.159Z"
      transform="translate(15.66 7) rotate(90)" fill="#404040" />
    <path id="Polygon_41" data-name="Polygon 41"
      d="M6.293.707a1,1,0,0,1,1.414,0l4.586,4.586A1,1,0,0,1,11.586,7H2.414a1,1,0,0,1-.707-1.707Z"
      transform="translate(28.395) rotate(90)" fill="#404040" />
  </g>
</svg>