<svg id="Component_223_1" data-name="Component 223 – 1" xmlns="http://www.w3.org/2000/svg" xmlns:xlink="http://www.w3.org/1999/xlink" width="1095" height="77" viewBox="0 0 1095 77">
  <defs>
    <clipPath id="clip-path">
      <rect id="Rectangle_37245" data-name="Rectangle 37245" width="1095" height="77" rx="15" transform="translate(2945 -1177)" fill="#fff"/>
    </clipPath>
    <linearGradient id="linear-gradient" x1="-3.209" y1="8.838" x2="0.642" y2="-0.043" gradientUnits="objectBoundingBox">
      <stop offset="0" stop-color="#52bbe8"/>
      <stop offset="0.196" stop-color="#68c3ea"/>
      <stop offset="0.604" stop-color="#a2d8f1"/>
      <stop offset="1" stop-color="#e1eff8"/>
    </linearGradient>
    <linearGradient id="linear-gradient-2" x1="-2.919" y1="8.168" x2="0.933" y2="-0.713" xlink:href="#linear-gradient"/>
    <linearGradient id="linear-gradient-3" x1="-3.658" y1="7.703" x2="1.592" y2="-1.178" xlink:href="#linear-gradient"/>
    <linearGradient id="linear-gradient-4" x1="-2.72" y1="4.806" x2="1.131" y2="-0.344" xlink:href="#linear-gradient"/>
    <linearGradient id="linear-gradient-5" x1="-2.43" y1="4.418" x2="1.421" y2="-0.732" xlink:href="#linear-gradient"/>
    <linearGradient id="linear-gradient-6" x1="-10.999" y1="5.434" x2="4.912" y2="-1.506" xlink:href="#linear-gradient"/>
    <linearGradient id="linear-gradient-7" x1="-2.187" y1="4.093" x2="1.665" y2="-1.057" xlink:href="#linear-gradient"/>
    <linearGradient id="linear-gradient-8" x1="-2.868" y1="3.737" x2="2.382" y2="-1.413" xlink:href="#linear-gradient"/>
    <linearGradient id="linear-gradient-9" x1="-15.876" y1="7.82" x2="-0.275" y2="0.925" xlink:href="#linear-gradient"/>
    <linearGradient id="linear-gradient-10" x1="-3.396" y1="5.709" x2="0.455" y2="0.56" xlink:href="#linear-gradient"/>
    <linearGradient id="linear-gradient-11" x1="-3.105" y1="5.321" x2="0.746" y2="0.171" xlink:href="#linear-gradient"/>
    <linearGradient id="linear-gradient-12" x1="-7.79" y1="4.034" x2="8.122" y2="-2.906" xlink:href="#linear-gradient"/>
    <linearGradient id="linear-gradient-13" x1="-4.348" y1="5.352" x2="0.868" y2="0.202" xlink:href="#linear-gradient"/>
    <linearGradient id="linear-gradient-14" x1="-2.862" y1="4.996" x2="0.989" y2="-0.154" xlink:href="#linear-gradient"/>
    <linearGradient id="linear-gradient-15" x1="-2.572" y1="4.607" x2="1.279" y2="-0.542" xlink:href="#linear-gradient"/>
    <linearGradient id="linear-gradient-16" x1="-12.73" y1="6.43" x2="2.872" y2="-0.466" xlink:href="#linear-gradient"/>
    <linearGradient id="linear-gradient-17" x1="-2.619" y1="4.671" x2="1.232" y2="-0.479" xlink:href="#linear-gradient"/>
    <linearGradient id="linear-gradient-18" x1="-2.329" y1="4.282" x2="1.523" y2="-0.867" xlink:href="#linear-gradient"/>
    <linearGradient id="linear-gradient-19" x1="-0.876" y1="2.34" x2="2.975" y2="-2.809" xlink:href="#linear-gradient"/>
    <linearGradient id="linear-gradient-20" x1="-12.689" y1="35.854" x2="6.171" y2="-14.583" xlink:href="#linear-gradient"/>
    <linearGradient id="linear-gradient-21" x1="-3.396" y1="4.423" x2="1.82" y2="-0.909" xlink:href="#linear-gradient"/>
    <linearGradient id="linear-gradient-22" x1="-2.085" y1="4.097" x2="1.766" y2="-1.235" xlink:href="#linear-gradient"/>
    <linearGradient id="linear-gradient-23" x1="-1.795" y1="3.695" x2="2.056" y2="-1.637" xlink:href="#linear-gradient"/>
    <linearGradient id="linear-gradient-24" x1="-0.633" y1="2.086" x2="3.218" y2="-3.245" xlink:href="#linear-gradient"/>
    <linearGradient id="linear-gradient-25" x1="-0.75" y1="1.718" x2="4.5" y2="-3.613" xlink:href="#linear-gradient"/>
    <linearGradient id="linear-gradient-26" x1="-2.429" y1="8.332" x2="16.888" y2="-43.325" xlink:href="#linear-gradient"/>
    <linearGradient id="linear-gradient-27" x1="-12.689" y1="35.854" x2="6.171" y2="-14.583" xlink:href="#linear-gradient"/>
    <linearGradient id="linear-gradient-28" x1="-2.217" y1="15.533" x2="1.993" y2="-6.988" xlink:href="#linear-gradient"/>
    <linearGradient id="linear-gradient-29" x1="-1.9" y1="13.834" x2="2.311" y2="-8.686" xlink:href="#linear-gradient"/>
    <linearGradient id="linear-gradient-30" x1="-1.582" y1="12.136" x2="2.628" y2="-10.385" xlink:href="#linear-gradient"/>
    <linearGradient id="linear-gradient-31" x1="-1.264" y1="10.437" x2="2.946" y2="-12.083" xlink:href="#linear-gradient"/>
    <linearGradient id="linear-gradient-32" x1="-0.947" y1="8.739" x2="3.264" y2="-13.782" xlink:href="#linear-gradient"/>
    <linearGradient id="linear-gradient-33" x1="-0.629" y1="7.04" x2="3.581" y2="-15.48" xlink:href="#linear-gradient"/>
    <linearGradient id="linear-gradient-34" x1="-0.312" y1="5.342" x2="3.899" y2="-17.179" xlink:href="#linear-gradient"/>
    <linearGradient id="linear-gradient-35" x1="-2.429" y1="8.333" x2="16.887" y2="-43.325" xlink:href="#linear-gradient"/>
    <linearGradient id="linear-gradient-36" x1="5.348" y1="5.352" x2="0.132" y2="0.202" xlink:href="#linear-gradient"/>
    <linearGradient id="linear-gradient-37" x1="3.862" y1="4.996" x2="0.011" y2="-0.154" xlink:href="#linear-gradient"/>
    <linearGradient id="linear-gradient-38" x1="3.572" y1="4.607" x2="-0.279" y2="-0.542" xlink:href="#linear-gradient"/>
    <linearGradient id="linear-gradient-39" x1="13.73" y1="6.43" x2="-1.872" y2="-0.466" xlink:href="#linear-gradient"/>
    <linearGradient id="linear-gradient-40" x1="3.619" y1="4.671" x2="-0.232" y2="-0.479" xlink:href="#linear-gradient"/>
    <linearGradient id="linear-gradient-41" x1="3.329" y1="4.282" x2="-0.523" y2="-0.867" xlink:href="#linear-gradient"/>
    <linearGradient id="linear-gradient-42" x1="13.689" y1="35.854" x2="-5.171" y2="-14.583" xlink:href="#linear-gradient"/>
    <linearGradient id="linear-gradient-43" x1="4.396" y1="4.423" x2="-0.82" y2="-0.909" xlink:href="#linear-gradient"/>
    <linearGradient id="linear-gradient-44" x1="3.085" y1="4.097" x2="-0.766" y2="-1.235" xlink:href="#linear-gradient"/>
    <linearGradient id="linear-gradient-45" x1="2.795" y1="3.695" x2="-1.056" y2="-1.637" xlink:href="#linear-gradient"/>
    <linearGradient id="linear-gradient-46" x1="13.689" y1="35.854" x2="-5.171" y2="-14.583" xlink:href="#linear-gradient"/>
    <linearGradient id="linear-gradient-47" x1="3.217" y1="15.533" x2="-0.993" y2="-6.988" xlink:href="#linear-gradient"/>
    <linearGradient id="linear-gradient-48" x1="2.9" y1="13.834" x2="-1.311" y2="-8.686" xlink:href="#linear-gradient"/>
    <linearGradient id="linear-gradient-49" x1="2.582" y1="12.136" x2="-1.628" y2="-10.385" xlink:href="#linear-gradient"/>
  </defs>
  <g id="Mask_Group_27" data-name="Mask Group 27" transform="translate(-2945 1177)" opacity="0.5" clip-path="url(#clip-path)">
    <g id="Group_55751" data-name="Group 55751" transform="translate(2756.068 -1273.827)">
      <g id="Group_55750" data-name="Group 55750" transform="translate(0 0)">
        <g id="Group_55717" data-name="Group 55717" transform="translate(62.428)">
          <path id="Path_57793" data-name="Path 57793" d="M1043.345-49.593v13.455l17.741,10.112,17.741-10.112V-49.593h.627v13.812l-18.368,10.469-18.368-10.469V-49.593Z" transform="translate(-1042.718 49.593)" fill="url(#linear-gradient)"/>
        </g>
        <g id="Group_55718" data-name="Group 55718" transform="translate(26.319)">
          <path id="Path_57794" data-name="Path 57794" d="M1101.292-49.593v13.455l17.741,10.112,17.741-10.112V-49.593h.627v13.812l-18.368,10.469-18.368-10.469V-49.593Z" transform="translate(-1100.665 49.593)" fill="url(#linear-gradient-2)"/>
        </g>
        <g id="Group_55719" data-name="Group 55719" transform="translate(0)">
          <path id="Path_57795" data-name="Path 57795" d="M1184.931-36.138V-49.593h.627v13.812L1167.19-25.312l-8.578-4.889v-.715l8.578,4.889Z" transform="translate(-1158.612 49.593)" fill="url(#linear-gradient-3)"/>
        </g>
        <g id="Group_55720" data-name="Group 55720" transform="translate(44.373 13.276)">
          <path id="Path_57796" data-name="Path 57796" d="M1090.059,13.864l18.368-10.469V-17.543l-18.368-10.469-18.368,10.469V3.395ZM1107.8,3.037l-17.74,10.112L1072.318,3.037V-17.186L1090.059-27.3l17.74,10.111Z" transform="translate(-1071.691 28.012)" fill="url(#linear-gradient-4)"/>
        </g>
        <g id="Group_55721" data-name="Group 55721" transform="translate(8.265 13.276)">
          <path id="Path_57797" data-name="Path 57797" d="M1148.006,13.864l18.368-10.469V-17.543l-18.368-10.469-18.367,10.469V3.395Zm17.741-10.827-17.741,10.112-17.74-10.112V-17.186l17.74-10.111,17.741,10.111Z" transform="translate(-1129.639 28.012)" fill="url(#linear-gradient-5)"/>
        </g>
        <g id="Group_55722" data-name="Group 55722" transform="translate(0 18.677)">
          <path id="Path_57798" data-name="Path 57798" d="M1187.585,11.127l8.265-4.71V-13.807l-8.265-4.71v-.715l8.892,5.068V6.774l-8.892,5.068Z" transform="translate(-1187.585 19.232)" fill="url(#linear-gradient-6)"/>
        </g>
        <g id="Group_55723" data-name="Group 55723" transform="translate(26.318 44.147)">
          <path id="Path_57799" data-name="Path 57799" d="M1119.033,64.048,1137.4,53.579V32.641l-18.368-10.469-18.368,10.469V53.579Zm17.741-10.826-17.741,10.112-17.741-10.112V33l17.741-10.111L1136.774,33Z" transform="translate(-1100.665 -22.172)" fill="url(#linear-gradient-7)"/>
        </g>
        <g id="Group_55724" data-name="Group 55724" transform="translate(0 44.147)">
          <path id="Path_57800" data-name="Path 57800" d="M1158.612,58.444l8.578,4.889,17.74-10.112V33l-17.74-10.112-8.578,4.889v-.715l8.578-4.889,18.368,10.469V53.579L1167.19,64.048l-8.578-4.889Z" transform="translate(-1158.612 -22.172)" fill="url(#linear-gradient-8)"/>
        </g>
        <g id="Group_55725" data-name="Group 55725" transform="translate(261.027 80.318)">
          <path id="Path_57801" data-name="Path 57801" d="M777.477,80.972v.715L769.035,86.5v20.223l8.441,4.811v.715l-9.068-5.169V86.14Z" transform="translate(-768.408 -80.972)" fill="url(#linear-gradient-9)"/>
        </g>
        <g id="Group_55726" data-name="Group 55726" transform="translate(224.918 75.018)">
          <path id="Path_57802" data-name="Path 57802" d="M800.323,114.232l18.368-10.469V82.825L800.323,72.356,781.955,82.825v20.938Zm17.741-10.826-17.741,10.111-17.741-10.111V83.182l17.741-10.111,17.741,10.111Z" transform="translate(-781.955 -72.356)" fill="url(#linear-gradient-10)"/>
        </g>
        <g id="Group_55727" data-name="Group 55727" transform="translate(188.809 75.018)">
          <path id="Path_57803" data-name="Path 57803" d="M858.27,114.232l18.368-10.469V82.825L858.27,72.356,839.9,82.825v20.938Zm17.741-10.826L858.27,113.517l-17.741-10.111V83.182L858.27,73.071l17.741,10.111Z" transform="translate(-839.902 -72.356)" fill="url(#linear-gradient-11)"/>
        </g>
        <g id="Group_55728" data-name="Group 55728" transform="translate(0 80.419)">
          <path id="Path_57804" data-name="Path 57804" d="M1187.585,111.495l8.265-4.71V86.561l-8.265-4.71v-.715l8.892,5.068v20.938l-8.892,5.068Z" transform="translate(-1187.585 -81.136)" fill="url(#linear-gradient-12)"/>
        </g>
        <g id="Group_55729" data-name="Group 55729" transform="translate(242.972 105.889)">
          <path id="Path_57805" data-name="Path 57805" d="M786.776,122.54l8.755,4.99v.715l-8.755-4.99-17.741,10.112v20.223L786.776,163.7l8.755-4.99v.715l-8.755,4.99-18.368-10.469V133.008Z" transform="translate(-768.408 -122.54)" fill="url(#linear-gradient-13)"/>
        </g>
        <g id="Group_55730" data-name="Group 55730" transform="translate(206.864 105.889)">
          <path id="Path_57806" data-name="Path 57806" d="M829.3,164.416l18.368-10.469V133.009L829.3,122.54l-18.368,10.469v20.938Zm17.741-10.826L829.3,163.7l-17.741-10.111V133.366L829.3,123.254l17.741,10.112Z" transform="translate(-810.928 -122.54)" fill="url(#linear-gradient-14)"/>
        </g>
        <g id="Group_55731" data-name="Group 55731" transform="translate(170.754 105.889)">
          <path id="Path_57807" data-name="Path 57807" d="M887.244,164.416l18.368-10.469V133.009L887.244,122.54l-18.368,10.469v20.938Zm17.741-10.826L887.244,163.7,869.5,153.589V133.366l17.74-10.112,17.741,10.112Z" transform="translate(-868.876 -122.54)" fill="url(#linear-gradient-15)"/>
        </g>
        <g id="Group_55732" data-name="Group 55732" transform="translate(261.027 142.06)">
          <path id="Path_57808" data-name="Path 57808" d="M777.477,181.339v.715l-8.441,4.811v20.223l8.441,4.811v.715l-9.068-5.169V186.508Z" transform="translate(-768.408 -181.339)" fill="url(#linear-gradient-16)"/>
        </g>
        <g id="Group_55733" data-name="Group 55733" transform="translate(224.918 136.759)">
          <path id="Path_57809" data-name="Path 57809" d="M800.323,214.6l18.368-10.469V183.192l-18.368-10.469-18.368,10.469V204.13Zm17.741-10.826-17.741,10.112-17.741-10.112V183.549l17.741-10.111,17.741,10.111Z" transform="translate(-781.955 -172.723)" fill="url(#linear-gradient-17)"/>
        </g>
        <g id="Group_55734" data-name="Group 55734" transform="translate(188.809 136.759)">
          <path id="Path_57810" data-name="Path 57810" d="M858.27,214.6l18.368-10.469V183.192L858.27,172.723,839.9,183.192V204.13Zm17.741-10.826L858.27,213.884l-17.741-10.112V183.549l17.741-10.111,17.741,10.111Z" transform="translate(-839.902 -172.723)" fill="url(#linear-gradient-18)"/>
        </g>
        <g id="Group_55735" data-name="Group 55735" transform="translate(8.265 136.759)">
          <path id="Path_57811" data-name="Path 57811" d="M1148.006,214.6l18.368-10.469V183.192l-18.368-10.469-18.367,10.469V204.13Zm17.741-10.826-17.741,10.112-17.74-10.112V183.549l17.74-10.111,17.741,10.111Z" transform="translate(-1129.639 -172.723)" fill="url(#linear-gradient-19)"/>
        </g>
        <g id="Group_55736" data-name="Group 55736" transform="translate(242.972 167.63)">
          <path id="Path_57812" data-name="Path 57812" d="M775.909,282.421l-6.248,3.561h-1.254l7.5-4.276Z" transform="translate(-748.786 -245.536)" fill="url(#linear-gradient-20)"/>
          <path id="Path_57813" data-name="Path 57813" d="M786.776,222.907l8.755,4.99v.715l-8.755-4.99-17.741,10.112v20.223l16.487,9.4h-1.254l-15.861-9.04V233.376Z" transform="translate(-768.408 -222.907)" fill="url(#linear-gradient-21)"/>
        </g>
        <g id="Group_55737" data-name="Group 55737" transform="translate(206.864 167.63)">
          <path id="Path_57814" data-name="Path 57814" d="M830.55,263.354l16.487-9.4V233.733L829.3,223.622l-17.741,10.112v20.223l16.487,9.4h-1.254l-15.86-9.04V233.376L829.3,222.907l18.368,10.469v20.938l-15.861,9.04Z" transform="translate(-810.928 -222.907)" fill="url(#linear-gradient-22)"/>
        </g>
        <g id="Group_55738" data-name="Group 55738" transform="translate(170.754 167.63)">
          <path id="Path_57815" data-name="Path 57815" d="M888.5,263.354l16.487-9.4V233.733l-17.741-10.112L869.5,233.733v20.223l16.487,9.4h-1.254l-15.861-9.04V233.376l18.368-10.469,18.368,10.469v20.938l-15.861,9.04Z" transform="translate(-868.876 -222.907)" fill="url(#linear-gradient-23)"/>
        </g>
        <g id="Group_55739" data-name="Group 55739" transform="translate(26.319 167.63)">
          <path id="Path_57816" data-name="Path 57816" d="M1120.286,263.354l16.487-9.4V233.733l-17.741-10.112-17.741,10.112v20.223l16.487,9.4h-1.254l-15.86-9.04V233.376l18.368-10.469,18.368,10.469v20.938l-15.861,9.04Z" transform="translate(-1100.665 -222.907)" fill="url(#linear-gradient-24)"/>
        </g>
        <g id="Group_55740" data-name="Group 55740" transform="translate(0 167.63)">
          <path id="Path_57817" data-name="Path 57817" d="M1167.19,223.622l-8.578,4.889V227.8l8.578-4.889,18.368,10.469v20.938l-15.86,9.04h-1.254l16.487-9.4V233.733Z" transform="translate(-1158.612 -222.907)" fill="url(#linear-gradient-25)"/>
          <path id="Path_57818" data-name="Path 57818" d="M1190.1,281.871l7.324,4.175h-1.254l-6.071-3.46Z" transform="translate(-1190.1 -245.599)" fill="url(#linear-gradient-26)"/>
        </g>
        <g id="Group_55741" data-name="Group 55741" transform="translate(262.594 203.802)">
          <path id="Path_57819" data-name="Path 57819" d="M775.91,281.707v.715l-6.247,3.561h-1.254Z" transform="translate(-768.408 -281.707)" fill="url(#linear-gradient-27)"/>
        </g>
        <g id="Group_55742" data-name="Group 55742" transform="translate(226.485 198.501)">
          <path id="Path_57820" data-name="Path 57820" d="M816.817,282.666l-15.547-8.861-15.547,8.861h-1.254l16.8-9.576,16.8,9.576Z" transform="translate(-784.469 -273.091)" fill="url(#linear-gradient-28)"/>
        </g>
        <g id="Group_55743" data-name="Group 55743" transform="translate(190.376 198.501)">
          <path id="Path_57821" data-name="Path 57821" d="M874.765,282.666l-15.547-8.861-15.547,8.861h-1.254l16.8-9.576,16.8,9.576Z" transform="translate(-842.417 -273.091)" fill="url(#linear-gradient-29)"/>
        </g>
        <g id="Group_55744" data-name="Group 55744" transform="translate(154.267 198.501)">
          <path id="Path_57822" data-name="Path 57822" d="M932.712,282.666l-15.547-8.861-15.547,8.861h-1.254l16.8-9.576,16.8,9.576Z" transform="translate(-900.364 -273.091)" fill="url(#linear-gradient-30)"/>
        </g>
        <g id="Group_55745" data-name="Group 55745" transform="translate(118.158 198.501)">
          <path id="Path_57823" data-name="Path 57823" d="M990.659,282.666l-15.547-8.861-15.547,8.861h-1.254l16.8-9.576,16.8,9.576Z" transform="translate(-958.311 -273.091)" fill="url(#linear-gradient-31)"/>
        </g>
        <g id="Group_55746" data-name="Group 55746" transform="translate(82.049 198.501)">
          <path id="Path_57824" data-name="Path 57824" d="M1048.607,282.666l-15.547-8.861-15.547,8.861h-1.254l16.8-9.576,16.8,9.576Z" transform="translate(-1016.259 -273.091)" fill="url(#linear-gradient-32)"/>
        </g>
        <g id="Group_55747" data-name="Group 55747" transform="translate(45.94 198.501)">
          <path id="Path_57825" data-name="Path 57825" d="M1106.554,282.666l-15.547-8.861-15.547,8.861h-1.254l16.8-9.576,16.8,9.576Z" transform="translate(-1074.206 -273.091)" fill="url(#linear-gradient-33)"/>
        </g>
        <g id="Group_55748" data-name="Group 55748" transform="translate(9.832 198.501)">
          <path id="Path_57826" data-name="Path 57826" d="M1164.5,282.666l-15.547-8.861-15.546,8.861h-1.254l16.8-9.576,16.8,9.576Z" transform="translate(-1132.153 -273.091)" fill="url(#linear-gradient-34)"/>
        </g>
        <g id="Group_55749" data-name="Group 55749" transform="translate(0 203.903)">
          <path id="Path_57827" data-name="Path 57827" d="M1190.1,281.871l7.324,4.175h-1.254l-6.071-3.46Z" transform="translate(-1190.1 -281.871)" fill="url(#linear-gradient-35)"/>
        </g>
      </g>
    </g>
    <g id="Group_55787" data-name="Group 55787" transform="translate(3026.068 -1304.789)">
      <g id="Group_55750-2" data-name="Group 55750" transform="translate(0 0)">
        <g id="Group_55729-2" data-name="Group 55729" transform="translate(0 105.889)">
          <path id="Path_57805-2" data-name="Path 57805" d="M777.163,122.54l-8.755,4.99v.715l8.755-4.99L794.9,133.366v20.223L777.163,163.7l-8.755-4.99v.715l8.755,4.99,18.368-10.469V133.008Z" transform="translate(-768.408 -122.54)" fill="url(#linear-gradient-36)"/>
        </g>
        <g id="Group_55730-2" data-name="Group 55730" transform="translate(26.496 105.889)">
          <path id="Path_57806-2" data-name="Path 57806" d="M829.3,164.416l-18.368-10.469V133.009L829.3,122.54l18.368,10.469v20.938Zm-17.741-10.826L829.3,163.7l17.741-10.111V133.366L829.3,123.254l-17.741,10.112Z" transform="translate(-810.928 -122.54)" fill="url(#linear-gradient-37)"/>
        </g>
        <g id="Group_55731-2" data-name="Group 55731" transform="translate(62.605 105.889)">
          <path id="Path_57807-2" data-name="Path 57807" d="M887.244,164.416l-18.368-10.469V133.009l18.368-10.469,18.368,10.469v20.938ZM869.5,153.589,887.244,163.7l17.74-10.111V133.366l-17.74-10.112L869.5,133.366Z" transform="translate(-868.876 -122.54)" fill="url(#linear-gradient-38)"/>
        </g>
        <g id="Group_55732-2" data-name="Group 55732" transform="translate(0 142.06)">
          <path id="Path_57808-2" data-name="Path 57808" d="M768.408,181.339v.715l8.441,4.811v20.223l-8.441,4.811v.715l9.068-5.169V186.508Z" transform="translate(-768.408 -181.339)" fill="url(#linear-gradient-39)"/>
        </g>
        <g id="Group_55733-2" data-name="Group 55733" transform="translate(8.442 136.759)">
          <path id="Path_57809-2" data-name="Path 57809" d="M800.323,214.6,781.955,204.13V183.192l18.368-10.469,18.368,10.469V204.13Zm-17.741-10.826,17.741,10.112,17.741-10.112V183.549l-17.741-10.111-17.741,10.111Z" transform="translate(-781.955 -172.723)" fill="url(#linear-gradient-40)"/>
        </g>
        <g id="Group_55734-2" data-name="Group 55734" transform="translate(44.55 136.759)">
          <path id="Path_57810-2" data-name="Path 57810" d="M858.27,214.6,839.9,204.13V183.192l18.368-10.469,18.368,10.469V204.13ZM840.53,203.772l17.741,10.112,17.741-10.112V183.549L858.27,173.438,840.53,183.549Z" transform="translate(-839.902 -172.723)" fill="url(#linear-gradient-41)"/>
        </g>
        <g id="Group_55736-2" data-name="Group 55736" transform="translate(0 167.631)">
          <path id="Path_57812-2" data-name="Path 57812" d="M768.408,282.421l6.248,3.561h1.254l-7.5-4.276Z" transform="translate(-768.408 -245.536)" fill="url(#linear-gradient-42)"/>
          <path id="Path_57813-2" data-name="Path 57813" d="M777.163,222.907l-8.755,4.99v.715l8.755-4.99L794.9,233.733v20.223l-16.487,9.4h1.254l15.861-9.04V233.376Z" transform="translate(-768.408 -222.907)" fill="url(#linear-gradient-43)"/>
        </g>
        <g id="Group_55737-2" data-name="Group 55737" transform="translate(26.496 167.631)">
          <path id="Path_57814-2" data-name="Path 57814" d="M828.043,263.354l-16.487-9.4V233.733L829.3,223.622l17.741,10.112v20.223l-16.487,9.4H831.8l15.86-9.04V233.376L829.3,222.907l-18.368,10.469v20.938l15.861,9.04Z" transform="translate(-810.928 -222.907)" fill="url(#linear-gradient-44)"/>
        </g>
        <g id="Group_55738-2" data-name="Group 55738" transform="translate(62.605 167.631)">
          <path id="Path_57815-2" data-name="Path 57815" d="M885.99,263.354l-16.487-9.4V233.733l17.741-10.112,17.741,10.112v20.223l-16.487,9.4h1.254l15.861-9.04V233.376l-18.368-10.469-18.368,10.469v20.938l15.861,9.04Z" transform="translate(-868.876 -222.907)" fill="url(#linear-gradient-45)"/>
        </g>
        <g id="Group_55741-2" data-name="Group 55741" transform="translate(0 203.802)">
          <path id="Path_57819-2" data-name="Path 57819" d="M768.408,281.707v.715l6.247,3.561h1.254Z" transform="translate(-768.408 -281.707)" fill="url(#linear-gradient-46)"/>
        </g>
        <g id="Group_55742-2" data-name="Group 55742" transform="translate(10.008 198.501)">
          <path id="Path_57820-2" data-name="Path 57820" d="M785.724,282.666l15.547-8.861,15.547,8.861h1.254l-16.8-9.576-16.8,9.576Z" transform="translate(-784.469 -273.091)" fill="url(#linear-gradient-47)"/>
        </g>
        <g id="Group_55743-2" data-name="Group 55743" transform="translate(46.117 198.501)">
          <path id="Path_57821-2" data-name="Path 57821" d="M843.671,282.666l15.547-8.861,15.547,8.861h1.254l-16.8-9.576-16.8,9.576Z" transform="translate(-842.417 -273.091)" fill="url(#linear-gradient-48)"/>
        </g>
        <g id="Group_55744-2" data-name="Group 55744" transform="translate(82.226 198.501)">
          <path id="Path_57822-2" data-name="Path 57822" d="M901.618,282.666l15.547-8.861,15.547,8.861h1.254l-16.8-9.576-16.8,9.576Z" transform="translate(-900.364 -273.091)" fill="url(#linear-gradient-49)"/>
        </g>
      </g>
    </g>
    <g id="Group_55788" data-name="Group 55788" transform="translate(3098.068 -1304.789)">
      <g id="Group_55750-3" data-name="Group 55750" transform="translate(0 0)">
        <g id="Group_55729-3" data-name="Group 55729" transform="translate(0 105.889)">
          <path id="Path_57805-3" data-name="Path 57805" d="M777.163,122.54l-8.755,4.99v.715l8.755-4.99L794.9,133.366v20.223L777.163,163.7l-8.755-4.99v.715l8.755,4.99,18.368-10.469V133.008Z" transform="translate(-768.408 -122.54)" fill="url(#linear-gradient-36)"/>
        </g>
        <g id="Group_55730-3" data-name="Group 55730" transform="translate(26.496 105.889)">
          <path id="Path_57806-3" data-name="Path 57806" d="M829.3,164.416l-18.368-10.469V133.009L829.3,122.54l18.368,10.469v20.938Zm-17.741-10.826L829.3,163.7l17.741-10.111V133.366L829.3,123.254l-17.741,10.112Z" transform="translate(-810.928 -122.54)" fill="url(#linear-gradient-37)"/>
        </g>
        <g id="Group_55731-3" data-name="Group 55731" transform="translate(62.605 105.889)">
          <path id="Path_57807-3" data-name="Path 57807" d="M887.244,164.416l-18.368-10.469V133.009l18.368-10.469,18.368,10.469v20.938ZM869.5,153.589,887.244,163.7l17.74-10.111V133.366l-17.74-10.112L869.5,133.366Z" transform="translate(-868.876 -122.54)" fill="url(#linear-gradient-38)"/>
        </g>
        <g id="Group_55732-3" data-name="Group 55732" transform="translate(0 142.06)">
          <path id="Path_57808-3" data-name="Path 57808" d="M768.408,181.339v.715l8.441,4.811v20.223l-8.441,4.811v.715l9.068-5.169V186.508Z" transform="translate(-768.408 -181.339)" fill="url(#linear-gradient-39)"/>
        </g>
        <g id="Group_55733-3" data-name="Group 55733" transform="translate(8.442 136.759)">
          <path id="Path_57809-3" data-name="Path 57809" d="M800.323,214.6,781.955,204.13V183.192l18.368-10.469,18.368,10.469V204.13Zm-17.741-10.826,17.741,10.112,17.741-10.112V183.549l-17.741-10.111-17.741,10.111Z" transform="translate(-781.955 -172.723)" fill="url(#linear-gradient-40)"/>
        </g>
        <g id="Group_55734-3" data-name="Group 55734" transform="translate(44.55 136.759)">
          <path id="Path_57810-3" data-name="Path 57810" d="M858.27,214.6,839.9,204.13V183.192l18.368-10.469,18.368,10.469V204.13ZM840.53,203.772l17.741,10.112,17.741-10.112V183.549L858.27,173.438,840.53,183.549Z" transform="translate(-839.902 -172.723)" fill="url(#linear-gradient-41)"/>
        </g>
        <g id="Group_55736-3" data-name="Group 55736" transform="translate(0 167.631)">
          <path id="Path_57812-3" data-name="Path 57812" d="M768.408,282.421l6.248,3.561h1.254l-7.5-4.276Z" transform="translate(-768.408 -245.536)" fill="url(#linear-gradient-42)"/>
          <path id="Path_57813-3" data-name="Path 57813" d="M777.163,222.907l-8.755,4.99v.715l8.755-4.99L794.9,233.733v20.223l-16.487,9.4h1.254l15.861-9.04V233.376Z" transform="translate(-768.408 -222.907)" fill="url(#linear-gradient-43)"/>
        </g>
        <g id="Group_55737-3" data-name="Group 55737" transform="translate(26.496 167.631)">
          <path id="Path_57814-3" data-name="Path 57814" d="M828.043,263.354l-16.487-9.4V233.733L829.3,223.622l17.741,10.112v20.223l-16.487,9.4H831.8l15.86-9.04V233.376L829.3,222.907l-18.368,10.469v20.938l15.861,9.04Z" transform="translate(-810.928 -222.907)" fill="url(#linear-gradient-44)"/>
        </g>
        <g id="Group_55738-3" data-name="Group 55738" transform="translate(62.605 167.631)">
          <path id="Path_57815-3" data-name="Path 57815" d="M885.99,263.354l-16.487-9.4V233.733l17.741-10.112,17.741,10.112v20.223l-16.487,9.4h1.254l15.861-9.04V233.376l-18.368-10.469-18.368,10.469v20.938l15.861,9.04Z" transform="translate(-868.876 -222.907)" fill="url(#linear-gradient-45)"/>
        </g>
        <g id="Group_55741-3" data-name="Group 55741" transform="translate(0 203.802)">
          <path id="Path_57819-3" data-name="Path 57819" d="M768.408,281.707v.715l6.247,3.561h1.254Z" transform="translate(-768.408 -281.707)" fill="url(#linear-gradient-46)"/>
        </g>
        <g id="Group_55742-3" data-name="Group 55742" transform="translate(10.008 198.501)">
          <path id="Path_57820-3" data-name="Path 57820" d="M785.724,282.666l15.547-8.861,15.547,8.861h1.254l-16.8-9.576-16.8,9.576Z" transform="translate(-784.469 -273.091)" fill="url(#linear-gradient-47)"/>
        </g>
        <g id="Group_55743-3" data-name="Group 55743" transform="translate(46.117 198.501)">
          <path id="Path_57821-3" data-name="Path 57821" d="M843.671,282.666l15.547-8.861,15.547,8.861h1.254l-16.8-9.576-16.8,9.576Z" transform="translate(-842.417 -273.091)" fill="url(#linear-gradient-48)"/>
        </g>
        <g id="Group_55744-3" data-name="Group 55744" transform="translate(82.226 198.501)">
          <path id="Path_57822-3" data-name="Path 57822" d="M901.618,282.666l15.547-8.861,15.547,8.861h1.254l-16.8-9.576-16.8,9.576Z" transform="translate(-900.364 -273.091)" fill="url(#linear-gradient-49)"/>
        </g>
      </g>
    </g>
    <g id="Group_55789" data-name="Group 55789" transform="translate(3170.068 -1304.789)">
      <g id="Group_55750-4" data-name="Group 55750" transform="translate(0 0)">
        <g id="Group_55729-4" data-name="Group 55729" transform="translate(0 105.889)">
          <path id="Path_57805-4" data-name="Path 57805" d="M777.163,122.54l-8.755,4.99v.715l8.755-4.99L794.9,133.366v20.223L777.163,163.7l-8.755-4.99v.715l8.755,4.99,18.368-10.469V133.008Z" transform="translate(-768.408 -122.54)" fill="url(#linear-gradient-36)"/>
        </g>
        <g id="Group_55730-4" data-name="Group 55730" transform="translate(26.496 105.889)">
          <path id="Path_57806-4" data-name="Path 57806" d="M829.3,164.416l-18.368-10.469V133.009L829.3,122.54l18.368,10.469v20.938Zm-17.741-10.826L829.3,163.7l17.741-10.111V133.366L829.3,123.254l-17.741,10.112Z" transform="translate(-810.928 -122.54)" fill="url(#linear-gradient-37)"/>
        </g>
        <g id="Group_55731-4" data-name="Group 55731" transform="translate(62.605 105.889)">
          <path id="Path_57807-4" data-name="Path 57807" d="M887.244,164.416l-18.368-10.469V133.009l18.368-10.469,18.368,10.469v20.938ZM869.5,153.589,887.244,163.7l17.74-10.111V133.366l-17.74-10.112L869.5,133.366Z" transform="translate(-868.876 -122.54)" fill="url(#linear-gradient-38)"/>
        </g>
        <g id="Group_55732-4" data-name="Group 55732" transform="translate(0 142.06)">
          <path id="Path_57808-4" data-name="Path 57808" d="M768.408,181.339v.715l8.441,4.811v20.223l-8.441,4.811v.715l9.068-5.169V186.508Z" transform="translate(-768.408 -181.339)" fill="url(#linear-gradient-39)"/>
        </g>
        <g id="Group_55733-4" data-name="Group 55733" transform="translate(8.442 136.759)">
          <path id="Path_57809-4" data-name="Path 57809" d="M800.323,214.6,781.955,204.13V183.192l18.368-10.469,18.368,10.469V204.13Zm-17.741-10.826,17.741,10.112,17.741-10.112V183.549l-17.741-10.111-17.741,10.111Z" transform="translate(-781.955 -172.723)" fill="url(#linear-gradient-40)"/>
        </g>
        <g id="Group_55734-4" data-name="Group 55734" transform="translate(44.55 136.759)">
          <path id="Path_57810-4" data-name="Path 57810" d="M858.27,214.6,839.9,204.13V183.192l18.368-10.469,18.368,10.469V204.13ZM840.53,203.772l17.741,10.112,17.741-10.112V183.549L858.27,173.438,840.53,183.549Z" transform="translate(-839.902 -172.723)" fill="url(#linear-gradient-41)"/>
        </g>
        <g id="Group_55736-4" data-name="Group 55736" transform="translate(0 167.631)">
          <path id="Path_57812-4" data-name="Path 57812" d="M768.408,282.421l6.248,3.561h1.254l-7.5-4.276Z" transform="translate(-768.408 -245.536)" fill="url(#linear-gradient-42)"/>
          <path id="Path_57813-4" data-name="Path 57813" d="M777.163,222.907l-8.755,4.99v.715l8.755-4.99L794.9,233.733v20.223l-16.487,9.4h1.254l15.861-9.04V233.376Z" transform="translate(-768.408 -222.907)" fill="url(#linear-gradient-43)"/>
        </g>
        <g id="Group_55737-4" data-name="Group 55737" transform="translate(26.496 167.631)">
          <path id="Path_57814-4" data-name="Path 57814" d="M828.043,263.354l-16.487-9.4V233.733L829.3,223.622l17.741,10.112v20.223l-16.487,9.4H831.8l15.86-9.04V233.376L829.3,222.907l-18.368,10.469v20.938l15.861,9.04Z" transform="translate(-810.928 -222.907)" fill="url(#linear-gradient-44)"/>
        </g>
        <g id="Group_55738-4" data-name="Group 55738" transform="translate(62.605 167.631)">
          <path id="Path_57815-4" data-name="Path 57815" d="M885.99,263.354l-16.487-9.4V233.733l17.741-10.112,17.741,10.112v20.223l-16.487,9.4h1.254l15.861-9.04V233.376l-18.368-10.469-18.368,10.469v20.938l15.861,9.04Z" transform="translate(-868.876 -222.907)" fill="url(#linear-gradient-45)"/>
        </g>
        <g id="Group_55741-4" data-name="Group 55741" transform="translate(0 203.802)">
          <path id="Path_57819-4" data-name="Path 57819" d="M768.408,281.707v.715l6.247,3.561h1.254Z" transform="translate(-768.408 -281.707)" fill="url(#linear-gradient-46)"/>
        </g>
        <g id="Group_55742-4" data-name="Group 55742" transform="translate(10.008 198.501)">
          <path id="Path_57820-4" data-name="Path 57820" d="M785.724,282.666l15.547-8.861,15.547,8.861h1.254l-16.8-9.576-16.8,9.576Z" transform="translate(-784.469 -273.091)" fill="url(#linear-gradient-47)"/>
        </g>
        <g id="Group_55743-4" data-name="Group 55743" transform="translate(46.117 198.501)">
          <path id="Path_57821-4" data-name="Path 57821" d="M843.671,282.666l15.547-8.861,15.547,8.861h1.254l-16.8-9.576-16.8,9.576Z" transform="translate(-842.417 -273.091)" fill="url(#linear-gradient-48)"/>
        </g>
        <g id="Group_55744-4" data-name="Group 55744" transform="translate(82.226 198.501)">
          <path id="Path_57822-4" data-name="Path 57822" d="M901.618,282.666l15.547-8.861,15.547,8.861h1.254l-16.8-9.576-16.8,9.576Z" transform="translate(-900.364 -273.091)" fill="url(#linear-gradient-49)"/>
        </g>
      </g>
    </g>
    <g id="Group_55790" data-name="Group 55790" transform="translate(3242.068 -1304.789)">
      <g id="Group_55750-5" data-name="Group 55750" transform="translate(0 0)">
        <g id="Group_55729-5" data-name="Group 55729" transform="translate(0 105.889)">
          <path id="Path_57805-5" data-name="Path 57805" d="M777.163,122.54l-8.755,4.99v.715l8.755-4.99L794.9,133.366v20.223L777.163,163.7l-8.755-4.99v.715l8.755,4.99,18.368-10.469V133.008Z" transform="translate(-768.408 -122.54)" fill="url(#linear-gradient-36)"/>
        </g>
        <g id="Group_55730-5" data-name="Group 55730" transform="translate(26.496 105.889)">
          <path id="Path_57806-5" data-name="Path 57806" d="M829.3,164.416l-18.368-10.469V133.009L829.3,122.54l18.368,10.469v20.938Zm-17.741-10.826L829.3,163.7l17.741-10.111V133.366L829.3,123.254l-17.741,10.112Z" transform="translate(-810.928 -122.54)" fill="url(#linear-gradient-37)"/>
        </g>
        <g id="Group_55731-5" data-name="Group 55731" transform="translate(62.605 105.889)">
          <path id="Path_57807-5" data-name="Path 57807" d="M887.244,164.416l-18.368-10.469V133.009l18.368-10.469,18.368,10.469v20.938ZM869.5,153.589,887.244,163.7l17.74-10.111V133.366l-17.74-10.112L869.5,133.366Z" transform="translate(-868.876 -122.54)" fill="url(#linear-gradient-38)"/>
        </g>
        <g id="Group_55732-5" data-name="Group 55732" transform="translate(0 142.06)">
          <path id="Path_57808-5" data-name="Path 57808" d="M768.408,181.339v.715l8.441,4.811v20.223l-8.441,4.811v.715l9.068-5.169V186.508Z" transform="translate(-768.408 -181.339)" fill="url(#linear-gradient-39)"/>
        </g>
        <g id="Group_55733-5" data-name="Group 55733" transform="translate(8.442 136.759)">
          <path id="Path_57809-5" data-name="Path 57809" d="M800.323,214.6,781.955,204.13V183.192l18.368-10.469,18.368,10.469V204.13Zm-17.741-10.826,17.741,10.112,17.741-10.112V183.549l-17.741-10.111-17.741,10.111Z" transform="translate(-781.955 -172.723)" fill="url(#linear-gradient-40)"/>
        </g>
        <g id="Group_55734-5" data-name="Group 55734" transform="translate(44.55 136.759)">
          <path id="Path_57810-5" data-name="Path 57810" d="M858.27,214.6,839.9,204.13V183.192l18.368-10.469,18.368,10.469V204.13ZM840.53,203.772l17.741,10.112,17.741-10.112V183.549L858.27,173.438,840.53,183.549Z" transform="translate(-839.902 -172.723)" fill="url(#linear-gradient-41)"/>
        </g>
        <g id="Group_55736-5" data-name="Group 55736" transform="translate(0 167.631)">
          <path id="Path_57812-5" data-name="Path 57812" d="M768.408,282.421l6.248,3.561h1.254l-7.5-4.276Z" transform="translate(-768.408 -245.536)" fill="url(#linear-gradient-42)"/>
          <path id="Path_57813-5" data-name="Path 57813" d="M777.163,222.907l-8.755,4.99v.715l8.755-4.99L794.9,233.733v20.223l-16.487,9.4h1.254l15.861-9.04V233.376Z" transform="translate(-768.408 -222.907)" fill="url(#linear-gradient-43)"/>
        </g>
        <g id="Group_55737-5" data-name="Group 55737" transform="translate(26.496 167.631)">
          <path id="Path_57814-5" data-name="Path 57814" d="M828.043,263.354l-16.487-9.4V233.733L829.3,223.622l17.741,10.112v20.223l-16.487,9.4H831.8l15.86-9.04V233.376L829.3,222.907l-18.368,10.469v20.938l15.861,9.04Z" transform="translate(-810.928 -222.907)" fill="url(#linear-gradient-44)"/>
        </g>
        <g id="Group_55738-5" data-name="Group 55738" transform="translate(62.605 167.631)">
          <path id="Path_57815-5" data-name="Path 57815" d="M885.99,263.354l-16.487-9.4V233.733l17.741-10.112,17.741,10.112v20.223l-16.487,9.4h1.254l15.861-9.04V233.376l-18.368-10.469-18.368,10.469v20.938l15.861,9.04Z" transform="translate(-868.876 -222.907)" fill="url(#linear-gradient-45)"/>
        </g>
        <g id="Group_55741-5" data-name="Group 55741" transform="translate(0 203.802)">
          <path id="Path_57819-5" data-name="Path 57819" d="M768.408,281.707v.715l6.247,3.561h1.254Z" transform="translate(-768.408 -281.707)" fill="url(#linear-gradient-46)"/>
        </g>
        <g id="Group_55742-5" data-name="Group 55742" transform="translate(10.008 198.501)">
          <path id="Path_57820-5" data-name="Path 57820" d="M785.724,282.666l15.547-8.861,15.547,8.861h1.254l-16.8-9.576-16.8,9.576Z" transform="translate(-784.469 -273.091)" fill="url(#linear-gradient-47)"/>
        </g>
        <g id="Group_55743-5" data-name="Group 55743" transform="translate(46.117 198.501)">
          <path id="Path_57821-5" data-name="Path 57821" d="M843.671,282.666l15.547-8.861,15.547,8.861h1.254l-16.8-9.576-16.8,9.576Z" transform="translate(-842.417 -273.091)" fill="url(#linear-gradient-48)"/>
        </g>
        <g id="Group_55744-5" data-name="Group 55744" transform="translate(82.226 198.501)">
          <path id="Path_57822-5" data-name="Path 57822" d="M901.618,282.666l15.547-8.861,15.547,8.861h1.254l-16.8-9.576-16.8,9.576Z" transform="translate(-900.364 -273.091)" fill="url(#linear-gradient-49)"/>
        </g>
      </g>
    </g>
    <g id="Group_55791" data-name="Group 55791" transform="translate(3314.068 -1304.789)">
      <g id="Group_55750-6" data-name="Group 55750" transform="translate(0 0)">
        <g id="Group_55729-6" data-name="Group 55729" transform="translate(0 105.889)">
          <path id="Path_57805-6" data-name="Path 57805" d="M777.163,122.54l-8.755,4.99v.715l8.755-4.99L794.9,133.366v20.223L777.163,163.7l-8.755-4.99v.715l8.755,4.99,18.368-10.469V133.008Z" transform="translate(-768.408 -122.54)" fill="url(#linear-gradient-36)"/>
        </g>
        <g id="Group_55730-6" data-name="Group 55730" transform="translate(26.496 105.889)">
          <path id="Path_57806-6" data-name="Path 57806" d="M829.3,164.416l-18.368-10.469V133.009L829.3,122.54l18.368,10.469v20.938Zm-17.741-10.826L829.3,163.7l17.741-10.111V133.366L829.3,123.254l-17.741,10.112Z" transform="translate(-810.928 -122.54)" fill="url(#linear-gradient-37)"/>
        </g>
        <g id="Group_55731-6" data-name="Group 55731" transform="translate(62.605 105.889)">
          <path id="Path_57807-6" data-name="Path 57807" d="M887.244,164.416l-18.368-10.469V133.009l18.368-10.469,18.368,10.469v20.938ZM869.5,153.589,887.244,163.7l17.74-10.111V133.366l-17.74-10.112L869.5,133.366Z" transform="translate(-868.876 -122.54)" fill="url(#linear-gradient-38)"/>
        </g>
        <g id="Group_55732-6" data-name="Group 55732" transform="translate(0 142.06)">
          <path id="Path_57808-6" data-name="Path 57808" d="M768.408,181.339v.715l8.441,4.811v20.223l-8.441,4.811v.715l9.068-5.169V186.508Z" transform="translate(-768.408 -181.339)" fill="url(#linear-gradient-39)"/>
        </g>
        <g id="Group_55733-6" data-name="Group 55733" transform="translate(8.442 136.759)">
          <path id="Path_57809-6" data-name="Path 57809" d="M800.323,214.6,781.955,204.13V183.192l18.368-10.469,18.368,10.469V204.13Zm-17.741-10.826,17.741,10.112,17.741-10.112V183.549l-17.741-10.111-17.741,10.111Z" transform="translate(-781.955 -172.723)" fill="url(#linear-gradient-40)"/>
        </g>
        <g id="Group_55734-6" data-name="Group 55734" transform="translate(44.55 136.759)">
          <path id="Path_57810-6" data-name="Path 57810" d="M858.27,214.6,839.9,204.13V183.192l18.368-10.469,18.368,10.469V204.13ZM840.53,203.772l17.741,10.112,17.741-10.112V183.549L858.27,173.438,840.53,183.549Z" transform="translate(-839.902 -172.723)" fill="url(#linear-gradient-41)"/>
        </g>
        <g id="Group_55736-6" data-name="Group 55736" transform="translate(0 167.631)">
          <path id="Path_57812-6" data-name="Path 57812" d="M768.408,282.421l6.248,3.561h1.254l-7.5-4.276Z" transform="translate(-768.408 -245.536)" fill="url(#linear-gradient-42)"/>
          <path id="Path_57813-6" data-name="Path 57813" d="M777.163,222.907l-8.755,4.99v.715l8.755-4.99L794.9,233.733v20.223l-16.487,9.4h1.254l15.861-9.04V233.376Z" transform="translate(-768.408 -222.907)" fill="url(#linear-gradient-43)"/>
        </g>
        <g id="Group_55737-6" data-name="Group 55737" transform="translate(26.496 167.631)">
          <path id="Path_57814-6" data-name="Path 57814" d="M828.043,263.354l-16.487-9.4V233.733L829.3,223.622l17.741,10.112v20.223l-16.487,9.4H831.8l15.86-9.04V233.376L829.3,222.907l-18.368,10.469v20.938l15.861,9.04Z" transform="translate(-810.928 -222.907)" fill="url(#linear-gradient-44)"/>
        </g>
        <g id="Group_55738-6" data-name="Group 55738" transform="translate(62.605 167.631)">
          <path id="Path_57815-6" data-name="Path 57815" d="M885.99,263.354l-16.487-9.4V233.733l17.741-10.112,17.741,10.112v20.223l-16.487,9.4h1.254l15.861-9.04V233.376l-18.368-10.469-18.368,10.469v20.938l15.861,9.04Z" transform="translate(-868.876 -222.907)" fill="url(#linear-gradient-45)"/>
        </g>
        <g id="Group_55741-6" data-name="Group 55741" transform="translate(0 203.802)">
          <path id="Path_57819-6" data-name="Path 57819" d="M768.408,281.707v.715l6.247,3.561h1.254Z" transform="translate(-768.408 -281.707)" fill="url(#linear-gradient-46)"/>
        </g>
        <g id="Group_55742-6" data-name="Group 55742" transform="translate(10.008 198.501)">
          <path id="Path_57820-6" data-name="Path 57820" d="M785.724,282.666l15.547-8.861,15.547,8.861h1.254l-16.8-9.576-16.8,9.576Z" transform="translate(-784.469 -273.091)" fill="url(#linear-gradient-47)"/>
        </g>
        <g id="Group_55743-6" data-name="Group 55743" transform="translate(46.117 198.501)">
          <path id="Path_57821-6" data-name="Path 57821" d="M843.671,282.666l15.547-8.861,15.547,8.861h1.254l-16.8-9.576-16.8,9.576Z" transform="translate(-842.417 -273.091)" fill="url(#linear-gradient-48)"/>
        </g>
        <g id="Group_55744-6" data-name="Group 55744" transform="translate(82.226 198.501)">
          <path id="Path_57822-6" data-name="Path 57822" d="M901.618,282.666l15.547-8.861,15.547,8.861h1.254l-16.8-9.576-16.8,9.576Z" transform="translate(-900.364 -273.091)" fill="url(#linear-gradient-49)"/>
        </g>
      </g>
    </g>
    <g id="Group_55792" data-name="Group 55792" transform="translate(3386.068 -1304.789)">
      <g id="Group_55750-7" data-name="Group 55750" transform="translate(0 0)">
        <g id="Group_55729-7" data-name="Group 55729" transform="translate(0 105.889)">
          <path id="Path_57805-7" data-name="Path 57805" d="M777.163,122.54l-8.755,4.99v.715l8.755-4.99L794.9,133.366v20.223L777.163,163.7l-8.755-4.99v.715l8.755,4.99,18.368-10.469V133.008Z" transform="translate(-768.408 -122.54)" fill="url(#linear-gradient-36)"/>
        </g>
        <g id="Group_55730-7" data-name="Group 55730" transform="translate(26.496 105.889)">
          <path id="Path_57806-7" data-name="Path 57806" d="M829.3,164.416l-18.368-10.469V133.009L829.3,122.54l18.368,10.469v20.938Zm-17.741-10.826L829.3,163.7l17.741-10.111V133.366L829.3,123.254l-17.741,10.112Z" transform="translate(-810.928 -122.54)" fill="url(#linear-gradient-37)"/>
        </g>
        <g id="Group_55731-7" data-name="Group 55731" transform="translate(62.605 105.889)">
          <path id="Path_57807-7" data-name="Path 57807" d="M887.244,164.416l-18.368-10.469V133.009l18.368-10.469,18.368,10.469v20.938ZM869.5,153.589,887.244,163.7l17.74-10.111V133.366l-17.74-10.112L869.5,133.366Z" transform="translate(-868.876 -122.54)" fill="url(#linear-gradient-38)"/>
        </g>
        <g id="Group_55732-7" data-name="Group 55732" transform="translate(0 142.06)">
          <path id="Path_57808-7" data-name="Path 57808" d="M768.408,181.339v.715l8.441,4.811v20.223l-8.441,4.811v.715l9.068-5.169V186.508Z" transform="translate(-768.408 -181.339)" fill="url(#linear-gradient-39)"/>
        </g>
        <g id="Group_55733-7" data-name="Group 55733" transform="translate(8.442 136.759)">
          <path id="Path_57809-7" data-name="Path 57809" d="M800.323,214.6,781.955,204.13V183.192l18.368-10.469,18.368,10.469V204.13Zm-17.741-10.826,17.741,10.112,17.741-10.112V183.549l-17.741-10.111-17.741,10.111Z" transform="translate(-781.955 -172.723)" fill="url(#linear-gradient-40)"/>
        </g>
        <g id="Group_55734-7" data-name="Group 55734" transform="translate(44.55 136.759)">
          <path id="Path_57810-7" data-name="Path 57810" d="M858.27,214.6,839.9,204.13V183.192l18.368-10.469,18.368,10.469V204.13ZM840.53,203.772l17.741,10.112,17.741-10.112V183.549L858.27,173.438,840.53,183.549Z" transform="translate(-839.902 -172.723)" fill="url(#linear-gradient-41)"/>
        </g>
        <g id="Group_55736-7" data-name="Group 55736" transform="translate(0 167.631)">
          <path id="Path_57812-7" data-name="Path 57812" d="M768.408,282.421l6.248,3.561h1.254l-7.5-4.276Z" transform="translate(-768.408 -245.536)" fill="url(#linear-gradient-42)"/>
          <path id="Path_57813-7" data-name="Path 57813" d="M777.163,222.907l-8.755,4.99v.715l8.755-4.99L794.9,233.733v20.223l-16.487,9.4h1.254l15.861-9.04V233.376Z" transform="translate(-768.408 -222.907)" fill="url(#linear-gradient-43)"/>
        </g>
        <g id="Group_55737-7" data-name="Group 55737" transform="translate(26.496 167.631)">
          <path id="Path_57814-7" data-name="Path 57814" d="M828.043,263.354l-16.487-9.4V233.733L829.3,223.622l17.741,10.112v20.223l-16.487,9.4H831.8l15.86-9.04V233.376L829.3,222.907l-18.368,10.469v20.938l15.861,9.04Z" transform="translate(-810.928 -222.907)" fill="url(#linear-gradient-44)"/>
        </g>
        <g id="Group_55738-7" data-name="Group 55738" transform="translate(62.605 167.631)">
          <path id="Path_57815-7" data-name="Path 57815" d="M885.99,263.354l-16.487-9.4V233.733l17.741-10.112,17.741,10.112v20.223l-16.487,9.4h1.254l15.861-9.04V233.376l-18.368-10.469-18.368,10.469v20.938l15.861,9.04Z" transform="translate(-868.876 -222.907)" fill="url(#linear-gradient-45)"/>
        </g>
        <g id="Group_55741-7" data-name="Group 55741" transform="translate(0 203.802)">
          <path id="Path_57819-7" data-name="Path 57819" d="M768.408,281.707v.715l6.247,3.561h1.254Z" transform="translate(-768.408 -281.707)" fill="url(#linear-gradient-46)"/>
        </g>
        <g id="Group_55742-7" data-name="Group 55742" transform="translate(10.008 198.501)">
          <path id="Path_57820-7" data-name="Path 57820" d="M785.724,282.666l15.547-8.861,15.547,8.861h1.254l-16.8-9.576-16.8,9.576Z" transform="translate(-784.469 -273.091)" fill="url(#linear-gradient-47)"/>
        </g>
        <g id="Group_55743-7" data-name="Group 55743" transform="translate(46.117 198.501)">
          <path id="Path_57821-7" data-name="Path 57821" d="M843.671,282.666l15.547-8.861,15.547,8.861h1.254l-16.8-9.576-16.8,9.576Z" transform="translate(-842.417 -273.091)" fill="url(#linear-gradient-48)"/>
        </g>
        <g id="Group_55744-7" data-name="Group 55744" transform="translate(82.226 198.501)">
          <path id="Path_57822-7" data-name="Path 57822" d="M901.618,282.666l15.547-8.861,15.547,8.861h1.254l-16.8-9.576-16.8,9.576Z" transform="translate(-900.364 -273.091)" fill="url(#linear-gradient-49)"/>
        </g>
      </g>
    </g>
    <g id="Group_55793" data-name="Group 55793" transform="translate(3458.068 -1304.789)">
      <g id="Group_55750-8" data-name="Group 55750" transform="translate(0 0)">
        <g id="Group_55729-8" data-name="Group 55729" transform="translate(0 105.889)">
          <path id="Path_57805-8" data-name="Path 57805" d="M777.163,122.54l-8.755,4.99v.715l8.755-4.99L794.9,133.366v20.223L777.163,163.7l-8.755-4.99v.715l8.755,4.99,18.368-10.469V133.008Z" transform="translate(-768.408 -122.54)" fill="url(#linear-gradient-36)"/>
        </g>
        <g id="Group_55730-8" data-name="Group 55730" transform="translate(26.496 105.889)">
          <path id="Path_57806-8" data-name="Path 57806" d="M829.3,164.416l-18.368-10.469V133.009L829.3,122.54l18.368,10.469v20.938Zm-17.741-10.826L829.3,163.7l17.741-10.111V133.366L829.3,123.254l-17.741,10.112Z" transform="translate(-810.928 -122.54)" fill="url(#linear-gradient-37)"/>
        </g>
        <g id="Group_55731-8" data-name="Group 55731" transform="translate(62.605 105.889)">
          <path id="Path_57807-8" data-name="Path 57807" d="M887.244,164.416l-18.368-10.469V133.009l18.368-10.469,18.368,10.469v20.938ZM869.5,153.589,887.244,163.7l17.74-10.111V133.366l-17.74-10.112L869.5,133.366Z" transform="translate(-868.876 -122.54)" fill="url(#linear-gradient-38)"/>
        </g>
        <g id="Group_55732-8" data-name="Group 55732" transform="translate(0 142.06)">
          <path id="Path_57808-8" data-name="Path 57808" d="M768.408,181.339v.715l8.441,4.811v20.223l-8.441,4.811v.715l9.068-5.169V186.508Z" transform="translate(-768.408 -181.339)" fill="url(#linear-gradient-39)"/>
        </g>
        <g id="Group_55733-8" data-name="Group 55733" transform="translate(8.442 136.759)">
          <path id="Path_57809-8" data-name="Path 57809" d="M800.323,214.6,781.955,204.13V183.192l18.368-10.469,18.368,10.469V204.13Zm-17.741-10.826,17.741,10.112,17.741-10.112V183.549l-17.741-10.111-17.741,10.111Z" transform="translate(-781.955 -172.723)" fill="url(#linear-gradient-40)"/>
        </g>
        <g id="Group_55734-8" data-name="Group 55734" transform="translate(44.55 136.759)">
          <path id="Path_57810-8" data-name="Path 57810" d="M858.27,214.6,839.9,204.13V183.192l18.368-10.469,18.368,10.469V204.13ZM840.53,203.772l17.741,10.112,17.741-10.112V183.549L858.27,173.438,840.53,183.549Z" transform="translate(-839.902 -172.723)" fill="url(#linear-gradient-41)"/>
        </g>
        <g id="Group_55736-8" data-name="Group 55736" transform="translate(0 167.631)">
          <path id="Path_57812-8" data-name="Path 57812" d="M768.408,282.421l6.248,3.561h1.254l-7.5-4.276Z" transform="translate(-768.408 -245.536)" fill="url(#linear-gradient-42)"/>
          <path id="Path_57813-8" data-name="Path 57813" d="M777.163,222.907l-8.755,4.99v.715l8.755-4.99L794.9,233.733v20.223l-16.487,9.4h1.254l15.861-9.04V233.376Z" transform="translate(-768.408 -222.907)" fill="url(#linear-gradient-43)"/>
        </g>
        <g id="Group_55737-8" data-name="Group 55737" transform="translate(26.496 167.631)">
          <path id="Path_57814-8" data-name="Path 57814" d="M828.043,263.354l-16.487-9.4V233.733L829.3,223.622l17.741,10.112v20.223l-16.487,9.4H831.8l15.86-9.04V233.376L829.3,222.907l-18.368,10.469v20.938l15.861,9.04Z" transform="translate(-810.928 -222.907)" fill="url(#linear-gradient-44)"/>
        </g>
        <g id="Group_55738-8" data-name="Group 55738" transform="translate(62.605 167.631)">
          <path id="Path_57815-8" data-name="Path 57815" d="M885.99,263.354l-16.487-9.4V233.733l17.741-10.112,17.741,10.112v20.223l-16.487,9.4h1.254l15.861-9.04V233.376l-18.368-10.469-18.368,10.469v20.938l15.861,9.04Z" transform="translate(-868.876 -222.907)" fill="url(#linear-gradient-45)"/>
        </g>
        <g id="Group_55741-8" data-name="Group 55741" transform="translate(0 203.802)">
          <path id="Path_57819-8" data-name="Path 57819" d="M768.408,281.707v.715l6.247,3.561h1.254Z" transform="translate(-768.408 -281.707)" fill="url(#linear-gradient-46)"/>
        </g>
        <g id="Group_55742-8" data-name="Group 55742" transform="translate(10.008 198.501)">
          <path id="Path_57820-8" data-name="Path 57820" d="M785.724,282.666l15.547-8.861,15.547,8.861h1.254l-16.8-9.576-16.8,9.576Z" transform="translate(-784.469 -273.091)" fill="url(#linear-gradient-47)"/>
        </g>
        <g id="Group_55743-8" data-name="Group 55743" transform="translate(46.117 198.501)">
          <path id="Path_57821-8" data-name="Path 57821" d="M843.671,282.666l15.547-8.861,15.547,8.861h1.254l-16.8-9.576-16.8,9.576Z" transform="translate(-842.417 -273.091)" fill="url(#linear-gradient-48)"/>
        </g>
        <g id="Group_55744-8" data-name="Group 55744" transform="translate(82.226 198.501)">
          <path id="Path_57822-8" data-name="Path 57822" d="M901.618,282.666l15.547-8.861,15.547,8.861h1.254l-16.8-9.576-16.8,9.576Z" transform="translate(-900.364 -273.091)" fill="url(#linear-gradient-49)"/>
        </g>
      </g>
    </g>
    <g id="Group_55794" data-name="Group 55794" transform="translate(3530.068 -1304.789)">
      <g id="Group_55750-9" data-name="Group 55750" transform="translate(0 0)">
        <g id="Group_55729-9" data-name="Group 55729" transform="translate(0 105.889)">
          <path id="Path_57805-9" data-name="Path 57805" d="M777.163,122.54l-8.755,4.99v.715l8.755-4.99L794.9,133.366v20.223L777.163,163.7l-8.755-4.99v.715l8.755,4.99,18.368-10.469V133.008Z" transform="translate(-768.408 -122.54)" fill="url(#linear-gradient-36)"/>
        </g>
        <g id="Group_55730-9" data-name="Group 55730" transform="translate(26.496 105.889)">
          <path id="Path_57806-9" data-name="Path 57806" d="M829.3,164.416l-18.368-10.469V133.009L829.3,122.54l18.368,10.469v20.938Zm-17.741-10.826L829.3,163.7l17.741-10.111V133.366L829.3,123.254l-17.741,10.112Z" transform="translate(-810.928 -122.54)" fill="url(#linear-gradient-37)"/>
        </g>
        <g id="Group_55731-9" data-name="Group 55731" transform="translate(62.605 105.889)">
          <path id="Path_57807-9" data-name="Path 57807" d="M887.244,164.416l-18.368-10.469V133.009l18.368-10.469,18.368,10.469v20.938ZM869.5,153.589,887.244,163.7l17.74-10.111V133.366l-17.74-10.112L869.5,133.366Z" transform="translate(-868.876 -122.54)" fill="url(#linear-gradient-38)"/>
        </g>
        <g id="Group_55732-9" data-name="Group 55732" transform="translate(0 142.06)">
          <path id="Path_57808-9" data-name="Path 57808" d="M768.408,181.339v.715l8.441,4.811v20.223l-8.441,4.811v.715l9.068-5.169V186.508Z" transform="translate(-768.408 -181.339)" fill="url(#linear-gradient-39)"/>
        </g>
        <g id="Group_55733-9" data-name="Group 55733" transform="translate(8.442 136.759)">
          <path id="Path_57809-9" data-name="Path 57809" d="M800.323,214.6,781.955,204.13V183.192l18.368-10.469,18.368,10.469V204.13Zm-17.741-10.826,17.741,10.112,17.741-10.112V183.549l-17.741-10.111-17.741,10.111Z" transform="translate(-781.955 -172.723)" fill="url(#linear-gradient-40)"/>
        </g>
        <g id="Group_55734-9" data-name="Group 55734" transform="translate(44.55 136.759)">
          <path id="Path_57810-9" data-name="Path 57810" d="M858.27,214.6,839.9,204.13V183.192l18.368-10.469,18.368,10.469V204.13ZM840.53,203.772l17.741,10.112,17.741-10.112V183.549L858.27,173.438,840.53,183.549Z" transform="translate(-839.902 -172.723)" fill="url(#linear-gradient-41)"/>
        </g>
        <g id="Group_55736-9" data-name="Group 55736" transform="translate(0 167.631)">
          <path id="Path_57812-9" data-name="Path 57812" d="M768.408,282.421l6.248,3.561h1.254l-7.5-4.276Z" transform="translate(-768.408 -245.536)" fill="url(#linear-gradient-42)"/>
          <path id="Path_57813-9" data-name="Path 57813" d="M777.163,222.907l-8.755,4.99v.715l8.755-4.99L794.9,233.733v20.223l-16.487,9.4h1.254l15.861-9.04V233.376Z" transform="translate(-768.408 -222.907)" fill="url(#linear-gradient-43)"/>
        </g>
        <g id="Group_55737-9" data-name="Group 55737" transform="translate(26.496 167.631)">
          <path id="Path_57814-9" data-name="Path 57814" d="M828.043,263.354l-16.487-9.4V233.733L829.3,223.622l17.741,10.112v20.223l-16.487,9.4H831.8l15.86-9.04V233.376L829.3,222.907l-18.368,10.469v20.938l15.861,9.04Z" transform="translate(-810.928 -222.907)" fill="url(#linear-gradient-44)"/>
        </g>
        <g id="Group_55738-9" data-name="Group 55738" transform="translate(62.605 167.631)">
          <path id="Path_57815-9" data-name="Path 57815" d="M885.99,263.354l-16.487-9.4V233.733l17.741-10.112,17.741,10.112v20.223l-16.487,9.4h1.254l15.861-9.04V233.376l-18.368-10.469-18.368,10.469v20.938l15.861,9.04Z" transform="translate(-868.876 -222.907)" fill="url(#linear-gradient-45)"/>
        </g>
        <g id="Group_55741-9" data-name="Group 55741" transform="translate(0 203.802)">
          <path id="Path_57819-9" data-name="Path 57819" d="M768.408,281.707v.715l6.247,3.561h1.254Z" transform="translate(-768.408 -281.707)" fill="url(#linear-gradient-46)"/>
        </g>
        <g id="Group_55742-9" data-name="Group 55742" transform="translate(10.008 198.501)">
          <path id="Path_57820-9" data-name="Path 57820" d="M785.724,282.666l15.547-8.861,15.547,8.861h1.254l-16.8-9.576-16.8,9.576Z" transform="translate(-784.469 -273.091)" fill="url(#linear-gradient-47)"/>
        </g>
        <g id="Group_55743-9" data-name="Group 55743" transform="translate(46.117 198.501)">
          <path id="Path_57821-9" data-name="Path 57821" d="M843.671,282.666l15.547-8.861,15.547,8.861h1.254l-16.8-9.576-16.8,9.576Z" transform="translate(-842.417 -273.091)" fill="url(#linear-gradient-48)"/>
        </g>
        <g id="Group_55744-9" data-name="Group 55744" transform="translate(82.226 198.501)">
          <path id="Path_57822-9" data-name="Path 57822" d="M901.618,282.666l15.547-8.861,15.547,8.861h1.254l-16.8-9.576-16.8,9.576Z" transform="translate(-900.364 -273.091)" fill="url(#linear-gradient-49)"/>
        </g>
      </g>
    </g>
    <g id="Group_55795" data-name="Group 55795" transform="translate(3602.068 -1304.789)">
      <g id="Group_55750-10" data-name="Group 55750" transform="translate(0 0)">
        <g id="Group_55729-10" data-name="Group 55729" transform="translate(0 105.889)">
          <path id="Path_57805-10" data-name="Path 57805" d="M777.163,122.54l-8.755,4.99v.715l8.755-4.99L794.9,133.366v20.223L777.163,163.7l-8.755-4.99v.715l8.755,4.99,18.368-10.469V133.008Z" transform="translate(-768.408 -122.54)" fill="url(#linear-gradient-36)"/>
        </g>
        <g id="Group_55730-10" data-name="Group 55730" transform="translate(26.496 105.889)">
          <path id="Path_57806-10" data-name="Path 57806" d="M829.3,164.416l-18.368-10.469V133.009L829.3,122.54l18.368,10.469v20.938Zm-17.741-10.826L829.3,163.7l17.741-10.111V133.366L829.3,123.254l-17.741,10.112Z" transform="translate(-810.928 -122.54)" fill="url(#linear-gradient-37)"/>
        </g>
        <g id="Group_55731-10" data-name="Group 55731" transform="translate(62.605 105.889)">
          <path id="Path_57807-10" data-name="Path 57807" d="M887.244,164.416l-18.368-10.469V133.009l18.368-10.469,18.368,10.469v20.938ZM869.5,153.589,887.244,163.7l17.74-10.111V133.366l-17.74-10.112L869.5,133.366Z" transform="translate(-868.876 -122.54)" fill="url(#linear-gradient-38)"/>
        </g>
        <g id="Group_55732-10" data-name="Group 55732" transform="translate(0 142.06)">
          <path id="Path_57808-10" data-name="Path 57808" d="M768.408,181.339v.715l8.441,4.811v20.223l-8.441,4.811v.715l9.068-5.169V186.508Z" transform="translate(-768.408 -181.339)" fill="url(#linear-gradient-39)"/>
        </g>
        <g id="Group_55733-10" data-name="Group 55733" transform="translate(8.442 136.759)">
          <path id="Path_57809-10" data-name="Path 57809" d="M800.323,214.6,781.955,204.13V183.192l18.368-10.469,18.368,10.469V204.13Zm-17.741-10.826,17.741,10.112,17.741-10.112V183.549l-17.741-10.111-17.741,10.111Z" transform="translate(-781.955 -172.723)" fill="url(#linear-gradient-40)"/>
        </g>
        <g id="Group_55734-10" data-name="Group 55734" transform="translate(44.55 136.759)">
          <path id="Path_57810-10" data-name="Path 57810" d="M858.27,214.6,839.9,204.13V183.192l18.368-10.469,18.368,10.469V204.13ZM840.53,203.772l17.741,10.112,17.741-10.112V183.549L858.27,173.438,840.53,183.549Z" transform="translate(-839.902 -172.723)" fill="url(#linear-gradient-41)"/>
        </g>
        <g id="Group_55736-10" data-name="Group 55736" transform="translate(0 167.631)">
          <path id="Path_57812-10" data-name="Path 57812" d="M768.408,282.421l6.248,3.561h1.254l-7.5-4.276Z" transform="translate(-768.408 -245.536)" fill="url(#linear-gradient-42)"/>
          <path id="Path_57813-10" data-name="Path 57813" d="M777.163,222.907l-8.755,4.99v.715l8.755-4.99L794.9,233.733v20.223l-16.487,9.4h1.254l15.861-9.04V233.376Z" transform="translate(-768.408 -222.907)" fill="url(#linear-gradient-43)"/>
        </g>
        <g id="Group_55737-10" data-name="Group 55737" transform="translate(26.496 167.631)">
          <path id="Path_57814-10" data-name="Path 57814" d="M828.043,263.354l-16.487-9.4V233.733L829.3,223.622l17.741,10.112v20.223l-16.487,9.4H831.8l15.86-9.04V233.376L829.3,222.907l-18.368,10.469v20.938l15.861,9.04Z" transform="translate(-810.928 -222.907)" fill="url(#linear-gradient-44)"/>
        </g>
        <g id="Group_55738-10" data-name="Group 55738" transform="translate(62.605 167.631)">
          <path id="Path_57815-10" data-name="Path 57815" d="M885.99,263.354l-16.487-9.4V233.733l17.741-10.112,17.741,10.112v20.223l-16.487,9.4h1.254l15.861-9.04V233.376l-18.368-10.469-18.368,10.469v20.938l15.861,9.04Z" transform="translate(-868.876 -222.907)" fill="url(#linear-gradient-45)"/>
        </g>
        <g id="Group_55741-10" data-name="Group 55741" transform="translate(0 203.802)">
          <path id="Path_57819-10" data-name="Path 57819" d="M768.408,281.707v.715l6.247,3.561h1.254Z" transform="translate(-768.408 -281.707)" fill="url(#linear-gradient-46)"/>
        </g>
        <g id="Group_55742-10" data-name="Group 55742" transform="translate(10.008 198.501)">
          <path id="Path_57820-10" data-name="Path 57820" d="M785.724,282.666l15.547-8.861,15.547,8.861h1.254l-16.8-9.576-16.8,9.576Z" transform="translate(-784.469 -273.091)" fill="url(#linear-gradient-47)"/>
        </g>
        <g id="Group_55743-10" data-name="Group 55743" transform="translate(46.117 198.501)">
          <path id="Path_57821-10" data-name="Path 57821" d="M843.671,282.666l15.547-8.861,15.547,8.861h1.254l-16.8-9.576-16.8,9.576Z" transform="translate(-842.417 -273.091)" fill="url(#linear-gradient-48)"/>
        </g>
        <g id="Group_55744-10" data-name="Group 55744" transform="translate(82.226 198.501)">
          <path id="Path_57822-10" data-name="Path 57822" d="M901.618,282.666l15.547-8.861,15.547,8.861h1.254l-16.8-9.576-16.8,9.576Z" transform="translate(-900.364 -273.091)" fill="url(#linear-gradient-49)"/>
        </g>
      </g>
    </g>
    <g id="Group_55796" data-name="Group 55796" transform="translate(3674.068 -1304.789)">
      <g id="Group_55750-11" data-name="Group 55750" transform="translate(0 0)">
        <g id="Group_55729-11" data-name="Group 55729" transform="translate(0 105.889)">
          <path id="Path_57805-11" data-name="Path 57805" d="M777.163,122.54l-8.755,4.99v.715l8.755-4.99L794.9,133.366v20.223L777.163,163.7l-8.755-4.99v.715l8.755,4.99,18.368-10.469V133.008Z" transform="translate(-768.408 -122.54)" fill="url(#linear-gradient-36)"/>
        </g>
        <g id="Group_55730-11" data-name="Group 55730" transform="translate(26.496 105.889)">
          <path id="Path_57806-11" data-name="Path 57806" d="M829.3,164.416l-18.368-10.469V133.009L829.3,122.54l18.368,10.469v20.938Zm-17.741-10.826L829.3,163.7l17.741-10.111V133.366L829.3,123.254l-17.741,10.112Z" transform="translate(-810.928 -122.54)" fill="url(#linear-gradient-37)"/>
        </g>
        <g id="Group_55731-11" data-name="Group 55731" transform="translate(62.605 105.889)">
          <path id="Path_57807-11" data-name="Path 57807" d="M887.244,164.416l-18.368-10.469V133.009l18.368-10.469,18.368,10.469v20.938ZM869.5,153.589,887.244,163.7l17.74-10.111V133.366l-17.74-10.112L869.5,133.366Z" transform="translate(-868.876 -122.54)" fill="url(#linear-gradient-38)"/>
        </g>
        <g id="Group_55732-11" data-name="Group 55732" transform="translate(0 142.06)">
          <path id="Path_57808-11" data-name="Path 57808" d="M768.408,181.339v.715l8.441,4.811v20.223l-8.441,4.811v.715l9.068-5.169V186.508Z" transform="translate(-768.408 -181.339)" fill="url(#linear-gradient-39)"/>
        </g>
        <g id="Group_55733-11" data-name="Group 55733" transform="translate(8.442 136.759)">
          <path id="Path_57809-11" data-name="Path 57809" d="M800.323,214.6,781.955,204.13V183.192l18.368-10.469,18.368,10.469V204.13Zm-17.741-10.826,17.741,10.112,17.741-10.112V183.549l-17.741-10.111-17.741,10.111Z" transform="translate(-781.955 -172.723)" fill="url(#linear-gradient-40)"/>
        </g>
        <g id="Group_55734-11" data-name="Group 55734" transform="translate(44.55 136.759)">
          <path id="Path_57810-11" data-name="Path 57810" d="M858.27,214.6,839.9,204.13V183.192l18.368-10.469,18.368,10.469V204.13ZM840.53,203.772l17.741,10.112,17.741-10.112V183.549L858.27,173.438,840.53,183.549Z" transform="translate(-839.902 -172.723)" fill="url(#linear-gradient-41)"/>
        </g>
        <g id="Group_55736-11" data-name="Group 55736" transform="translate(0 167.631)">
          <path id="Path_57812-11" data-name="Path 57812" d="M768.408,282.421l6.248,3.561h1.254l-7.5-4.276Z" transform="translate(-768.408 -245.536)" fill="url(#linear-gradient-42)"/>
          <path id="Path_57813-11" data-name="Path 57813" d="M777.163,222.907l-8.755,4.99v.715l8.755-4.99L794.9,233.733v20.223l-16.487,9.4h1.254l15.861-9.04V233.376Z" transform="translate(-768.408 -222.907)" fill="url(#linear-gradient-43)"/>
        </g>
        <g id="Group_55737-11" data-name="Group 55737" transform="translate(26.496 167.631)">
          <path id="Path_57814-11" data-name="Path 57814" d="M828.043,263.354l-16.487-9.4V233.733L829.3,223.622l17.741,10.112v20.223l-16.487,9.4H831.8l15.86-9.04V233.376L829.3,222.907l-18.368,10.469v20.938l15.861,9.04Z" transform="translate(-810.928 -222.907)" fill="url(#linear-gradient-44)"/>
        </g>
        <g id="Group_55738-11" data-name="Group 55738" transform="translate(62.605 167.631)">
          <path id="Path_57815-11" data-name="Path 57815" d="M885.99,263.354l-16.487-9.4V233.733l17.741-10.112,17.741,10.112v20.223l-16.487,9.4h1.254l15.861-9.04V233.376l-18.368-10.469-18.368,10.469v20.938l15.861,9.04Z" transform="translate(-868.876 -222.907)" fill="url(#linear-gradient-45)"/>
        </g>
        <g id="Group_55741-11" data-name="Group 55741" transform="translate(0 203.802)">
          <path id="Path_57819-11" data-name="Path 57819" d="M768.408,281.707v.715l6.247,3.561h1.254Z" transform="translate(-768.408 -281.707)" fill="url(#linear-gradient-46)"/>
        </g>
        <g id="Group_55742-11" data-name="Group 55742" transform="translate(10.008 198.501)">
          <path id="Path_57820-11" data-name="Path 57820" d="M785.724,282.666l15.547-8.861,15.547,8.861h1.254l-16.8-9.576-16.8,9.576Z" transform="translate(-784.469 -273.091)" fill="url(#linear-gradient-47)"/>
        </g>
        <g id="Group_55743-11" data-name="Group 55743" transform="translate(46.117 198.501)">
          <path id="Path_57821-11" data-name="Path 57821" d="M843.671,282.666l15.547-8.861,15.547,8.861h1.254l-16.8-9.576-16.8,9.576Z" transform="translate(-842.417 -273.091)" fill="url(#linear-gradient-48)"/>
        </g>
        <g id="Group_55744-11" data-name="Group 55744" transform="translate(82.226 198.501)">
          <path id="Path_57822-11" data-name="Path 57822" d="M901.618,282.666l15.547-8.861,15.547,8.861h1.254l-16.8-9.576-16.8,9.576Z" transform="translate(-900.364 -273.091)" fill="url(#linear-gradient-49)"/>
        </g>
      </g>
    </g>
    <g id="Group_55797" data-name="Group 55797" transform="translate(3710.068 -1304.789)">
      <g id="Group_55750-12" data-name="Group 55750" transform="translate(0 0)">
        <g id="Group_55729-12" data-name="Group 55729" transform="translate(0 105.889)">
          <path id="Path_57805-12" data-name="Path 57805" d="M777.163,122.54l-8.755,4.99v.715l8.755-4.99L794.9,133.366v20.223L777.163,163.7l-8.755-4.99v.715l8.755,4.99,18.368-10.469V133.008Z" transform="translate(-768.408 -122.54)" fill="url(#linear-gradient-36)"/>
        </g>
        <g id="Group_55730-12" data-name="Group 55730" transform="translate(26.496 105.889)">
          <path id="Path_57806-12" data-name="Path 57806" d="M829.3,164.416l-18.368-10.469V133.009L829.3,122.54l18.368,10.469v20.938Zm-17.741-10.826L829.3,163.7l17.741-10.111V133.366L829.3,123.254l-17.741,10.112Z" transform="translate(-810.928 -122.54)" fill="url(#linear-gradient-37)"/>
        </g>
        <g id="Group_55731-12" data-name="Group 55731" transform="translate(62.605 105.889)">
          <path id="Path_57807-12" data-name="Path 57807" d="M887.244,164.416l-18.368-10.469V133.009l18.368-10.469,18.368,10.469v20.938ZM869.5,153.589,887.244,163.7l17.74-10.111V133.366l-17.74-10.112L869.5,133.366Z" transform="translate(-868.876 -122.54)" fill="url(#linear-gradient-38)"/>
        </g>
        <g id="Group_55732-12" data-name="Group 55732" transform="translate(0 142.06)">
          <path id="Path_57808-12" data-name="Path 57808" d="M768.408,181.339v.715l8.441,4.811v20.223l-8.441,4.811v.715l9.068-5.169V186.508Z" transform="translate(-768.408 -181.339)" fill="url(#linear-gradient-39)"/>
        </g>
        <g id="Group_55733-12" data-name="Group 55733" transform="translate(8.442 136.759)">
          <path id="Path_57809-12" data-name="Path 57809" d="M800.323,214.6,781.955,204.13V183.192l18.368-10.469,18.368,10.469V204.13Zm-17.741-10.826,17.741,10.112,17.741-10.112V183.549l-17.741-10.111-17.741,10.111Z" transform="translate(-781.955 -172.723)" fill="url(#linear-gradient-40)"/>
        </g>
        <g id="Group_55734-12" data-name="Group 55734" transform="translate(44.55 136.759)">
          <path id="Path_57810-12" data-name="Path 57810" d="M858.27,214.6,839.9,204.13V183.192l18.368-10.469,18.368,10.469V204.13ZM840.53,203.772l17.741,10.112,17.741-10.112V183.549L858.27,173.438,840.53,183.549Z" transform="translate(-839.902 -172.723)" fill="url(#linear-gradient-41)"/>
        </g>
        <g id="Group_55736-12" data-name="Group 55736" transform="translate(0 167.631)">
          <path id="Path_57812-12" data-name="Path 57812" d="M768.408,282.421l6.248,3.561h1.254l-7.5-4.276Z" transform="translate(-768.408 -245.536)" fill="url(#linear-gradient-42)"/>
          <path id="Path_57813-12" data-name="Path 57813" d="M777.163,222.907l-8.755,4.99v.715l8.755-4.99L794.9,233.733v20.223l-16.487,9.4h1.254l15.861-9.04V233.376Z" transform="translate(-768.408 -222.907)" fill="url(#linear-gradient-43)"/>
        </g>
        <g id="Group_55737-12" data-name="Group 55737" transform="translate(26.496 167.631)">
          <path id="Path_57814-12" data-name="Path 57814" d="M828.043,263.354l-16.487-9.4V233.733L829.3,223.622l17.741,10.112v20.223l-16.487,9.4H831.8l15.86-9.04V233.376L829.3,222.907l-18.368,10.469v20.938l15.861,9.04Z" transform="translate(-810.928 -222.907)" fill="url(#linear-gradient-44)"/>
        </g>
        <g id="Group_55738-12" data-name="Group 55738" transform="translate(62.605 167.631)">
          <path id="Path_57815-12" data-name="Path 57815" d="M885.99,263.354l-16.487-9.4V233.733l17.741-10.112,17.741,10.112v20.223l-16.487,9.4h1.254l15.861-9.04V233.376l-18.368-10.469-18.368,10.469v20.938l15.861,9.04Z" transform="translate(-868.876 -222.907)" fill="url(#linear-gradient-45)"/>
        </g>
        <g id="Group_55741-12" data-name="Group 55741" transform="translate(0 203.802)">
          <path id="Path_57819-12" data-name="Path 57819" d="M768.408,281.707v.715l6.247,3.561h1.254Z" transform="translate(-768.408 -281.707)" fill="url(#linear-gradient-46)"/>
        </g>
        <g id="Group_55742-12" data-name="Group 55742" transform="translate(10.008 198.501)">
          <path id="Path_57820-12" data-name="Path 57820" d="M785.724,282.666l15.547-8.861,15.547,8.861h1.254l-16.8-9.576-16.8,9.576Z" transform="translate(-784.469 -273.091)" fill="url(#linear-gradient-47)"/>
        </g>
        <g id="Group_55743-12" data-name="Group 55743" transform="translate(46.117 198.501)">
          <path id="Path_57821-12" data-name="Path 57821" d="M843.671,282.666l15.547-8.861,15.547,8.861h1.254l-16.8-9.576-16.8,9.576Z" transform="translate(-842.417 -273.091)" fill="url(#linear-gradient-48)"/>
        </g>
        <g id="Group_55744-12" data-name="Group 55744" transform="translate(82.226 198.501)">
          <path id="Path_57822-12" data-name="Path 57822" d="M901.618,282.666l15.547-8.861,15.547,8.861h1.254l-16.8-9.576-16.8,9.576Z" transform="translate(-900.364 -273.091)" fill="url(#linear-gradient-49)"/>
        </g>
      </g>
    </g>
    <g id="Group_55798" data-name="Group 55798" transform="translate(3782.068 -1304.789)">
      <g id="Group_55750-13" data-name="Group 55750" transform="translate(0 0)">
        <g id="Group_55729-13" data-name="Group 55729" transform="translate(0 105.889)">
          <path id="Path_57805-13" data-name="Path 57805" d="M777.163,122.54l-8.755,4.99v.715l8.755-4.99L794.9,133.366v20.223L777.163,163.7l-8.755-4.99v.715l8.755,4.99,18.368-10.469V133.008Z" transform="translate(-768.408 -122.54)" fill="url(#linear-gradient-36)"/>
        </g>
        <g id="Group_55730-13" data-name="Group 55730" transform="translate(26.496 105.889)">
          <path id="Path_57806-13" data-name="Path 57806" d="M829.3,164.416l-18.368-10.469V133.009L829.3,122.54l18.368,10.469v20.938Zm-17.741-10.826L829.3,163.7l17.741-10.111V133.366L829.3,123.254l-17.741,10.112Z" transform="translate(-810.928 -122.54)" fill="url(#linear-gradient-37)"/>
        </g>
        <g id="Group_55731-13" data-name="Group 55731" transform="translate(62.605 105.889)">
          <path id="Path_57807-13" data-name="Path 57807" d="M887.244,164.416l-18.368-10.469V133.009l18.368-10.469,18.368,10.469v20.938ZM869.5,153.589,887.244,163.7l17.74-10.111V133.366l-17.74-10.112L869.5,133.366Z" transform="translate(-868.876 -122.54)" fill="url(#linear-gradient-38)"/>
        </g>
        <g id="Group_55732-13" data-name="Group 55732" transform="translate(0 142.06)">
          <path id="Path_57808-13" data-name="Path 57808" d="M768.408,181.339v.715l8.441,4.811v20.223l-8.441,4.811v.715l9.068-5.169V186.508Z" transform="translate(-768.408 -181.339)" fill="url(#linear-gradient-39)"/>
        </g>
        <g id="Group_55733-13" data-name="Group 55733" transform="translate(8.442 136.759)">
          <path id="Path_57809-13" data-name="Path 57809" d="M800.323,214.6,781.955,204.13V183.192l18.368-10.469,18.368,10.469V204.13Zm-17.741-10.826,17.741,10.112,17.741-10.112V183.549l-17.741-10.111-17.741,10.111Z" transform="translate(-781.955 -172.723)" fill="url(#linear-gradient-40)"/>
        </g>
        <g id="Group_55734-13" data-name="Group 55734" transform="translate(44.55 136.759)">
          <path id="Path_57810-13" data-name="Path 57810" d="M858.27,214.6,839.9,204.13V183.192l18.368-10.469,18.368,10.469V204.13ZM840.53,203.772l17.741,10.112,17.741-10.112V183.549L858.27,173.438,840.53,183.549Z" transform="translate(-839.902 -172.723)" fill="url(#linear-gradient-41)"/>
        </g>
        <g id="Group_55736-13" data-name="Group 55736" transform="translate(0 167.631)">
          <path id="Path_57812-13" data-name="Path 57812" d="M768.408,282.421l6.248,3.561h1.254l-7.5-4.276Z" transform="translate(-768.408 -245.536)" fill="url(#linear-gradient-42)"/>
          <path id="Path_57813-13" data-name="Path 57813" d="M777.163,222.907l-8.755,4.99v.715l8.755-4.99L794.9,233.733v20.223l-16.487,9.4h1.254l15.861-9.04V233.376Z" transform="translate(-768.408 -222.907)" fill="url(#linear-gradient-43)"/>
        </g>
        <g id="Group_55737-13" data-name="Group 55737" transform="translate(26.496 167.631)">
          <path id="Path_57814-13" data-name="Path 57814" d="M828.043,263.354l-16.487-9.4V233.733L829.3,223.622l17.741,10.112v20.223l-16.487,9.4H831.8l15.86-9.04V233.376L829.3,222.907l-18.368,10.469v20.938l15.861,9.04Z" transform="translate(-810.928 -222.907)" fill="url(#linear-gradient-44)"/>
        </g>
        <g id="Group_55738-13" data-name="Group 55738" transform="translate(62.605 167.631)">
          <path id="Path_57815-13" data-name="Path 57815" d="M885.99,263.354l-16.487-9.4V233.733l17.741-10.112,17.741,10.112v20.223l-16.487,9.4h1.254l15.861-9.04V233.376l-18.368-10.469-18.368,10.469v20.938l15.861,9.04Z" transform="translate(-868.876 -222.907)" fill="url(#linear-gradient-45)"/>
        </g>
        <g id="Group_55741-13" data-name="Group 55741" transform="translate(0 203.802)">
          <path id="Path_57819-13" data-name="Path 57819" d="M768.408,281.707v.715l6.247,3.561h1.254Z" transform="translate(-768.408 -281.707)" fill="url(#linear-gradient-46)"/>
        </g>
        <g id="Group_55742-13" data-name="Group 55742" transform="translate(10.008 198.501)">
          <path id="Path_57820-13" data-name="Path 57820" d="M785.724,282.666l15.547-8.861,15.547,8.861h1.254l-16.8-9.576-16.8,9.576Z" transform="translate(-784.469 -273.091)" fill="url(#linear-gradient-47)"/>
        </g>
        <g id="Group_55743-13" data-name="Group 55743" transform="translate(46.117 198.501)">
          <path id="Path_57821-13" data-name="Path 57821" d="M843.671,282.666l15.547-8.861,15.547,8.861h1.254l-16.8-9.576-16.8,9.576Z" transform="translate(-842.417 -273.091)" fill="url(#linear-gradient-48)"/>
        </g>
        <g id="Group_55744-13" data-name="Group 55744" transform="translate(82.226 198.501)">
          <path id="Path_57822-13" data-name="Path 57822" d="M901.618,282.666l15.547-8.861,15.547,8.861h1.254l-16.8-9.576-16.8,9.576Z" transform="translate(-900.364 -273.091)" fill="url(#linear-gradient-49)"/>
        </g>
      </g>
    </g>
    <g id="Group_55799" data-name="Group 55799" transform="translate(3854.068 -1304.789)">
      <g id="Group_55750-14" data-name="Group 55750" transform="translate(0 0)">
        <g id="Group_55729-14" data-name="Group 55729" transform="translate(0 105.889)">
          <path id="Path_57805-14" data-name="Path 57805" d="M777.163,122.54l-8.755,4.99v.715l8.755-4.99L794.9,133.366v20.223L777.163,163.7l-8.755-4.99v.715l8.755,4.99,18.368-10.469V133.008Z" transform="translate(-768.408 -122.54)" fill="url(#linear-gradient-36)"/>
        </g>
        <g id="Group_55730-14" data-name="Group 55730" transform="translate(26.496 105.889)">
          <path id="Path_57806-14" data-name="Path 57806" d="M829.3,164.416l-18.368-10.469V133.009L829.3,122.54l18.368,10.469v20.938Zm-17.741-10.826L829.3,163.7l17.741-10.111V133.366L829.3,123.254l-17.741,10.112Z" transform="translate(-810.928 -122.54)" fill="url(#linear-gradient-37)"/>
        </g>
        <g id="Group_55731-14" data-name="Group 55731" transform="translate(62.605 105.889)">
          <path id="Path_57807-14" data-name="Path 57807" d="M887.244,164.416l-18.368-10.469V133.009l18.368-10.469,18.368,10.469v20.938ZM869.5,153.589,887.244,163.7l17.74-10.111V133.366l-17.74-10.112L869.5,133.366Z" transform="translate(-868.876 -122.54)" fill="url(#linear-gradient-38)"/>
        </g>
        <g id="Group_55732-14" data-name="Group 55732" transform="translate(0 142.06)">
          <path id="Path_57808-14" data-name="Path 57808" d="M768.408,181.339v.715l8.441,4.811v20.223l-8.441,4.811v.715l9.068-5.169V186.508Z" transform="translate(-768.408 -181.339)" fill="url(#linear-gradient-39)"/>
        </g>
        <g id="Group_55733-14" data-name="Group 55733" transform="translate(8.442 136.759)">
          <path id="Path_57809-14" data-name="Path 57809" d="M800.323,214.6,781.955,204.13V183.192l18.368-10.469,18.368,10.469V204.13Zm-17.741-10.826,17.741,10.112,17.741-10.112V183.549l-17.741-10.111-17.741,10.111Z" transform="translate(-781.955 -172.723)" fill="url(#linear-gradient-40)"/>
        </g>
        <g id="Group_55734-14" data-name="Group 55734" transform="translate(44.55 136.759)">
          <path id="Path_57810-14" data-name="Path 57810" d="M858.27,214.6,839.9,204.13V183.192l18.368-10.469,18.368,10.469V204.13ZM840.53,203.772l17.741,10.112,17.741-10.112V183.549L858.27,173.438,840.53,183.549Z" transform="translate(-839.902 -172.723)" fill="url(#linear-gradient-41)"/>
        </g>
        <g id="Group_55736-14" data-name="Group 55736" transform="translate(0 167.631)">
          <path id="Path_57812-14" data-name="Path 57812" d="M768.408,282.421l6.248,3.561h1.254l-7.5-4.276Z" transform="translate(-768.408 -245.536)" fill="url(#linear-gradient-42)"/>
          <path id="Path_57813-14" data-name="Path 57813" d="M777.163,222.907l-8.755,4.99v.715l8.755-4.99L794.9,233.733v20.223l-16.487,9.4h1.254l15.861-9.04V233.376Z" transform="translate(-768.408 -222.907)" fill="url(#linear-gradient-43)"/>
        </g>
        <g id="Group_55737-14" data-name="Group 55737" transform="translate(26.496 167.631)">
          <path id="Path_57814-14" data-name="Path 57814" d="M828.043,263.354l-16.487-9.4V233.733L829.3,223.622l17.741,10.112v20.223l-16.487,9.4H831.8l15.86-9.04V233.376L829.3,222.907l-18.368,10.469v20.938l15.861,9.04Z" transform="translate(-810.928 -222.907)" fill="url(#linear-gradient-44)"/>
        </g>
        <g id="Group_55738-14" data-name="Group 55738" transform="translate(62.605 167.631)">
          <path id="Path_57815-14" data-name="Path 57815" d="M885.99,263.354l-16.487-9.4V233.733l17.741-10.112,17.741,10.112v20.223l-16.487,9.4h1.254l15.861-9.04V233.376l-18.368-10.469-18.368,10.469v20.938l15.861,9.04Z" transform="translate(-868.876 -222.907)" fill="url(#linear-gradient-45)"/>
        </g>
        <g id="Group_55741-14" data-name="Group 55741" transform="translate(0 203.802)">
          <path id="Path_57819-14" data-name="Path 57819" d="M768.408,281.707v.715l6.247,3.561h1.254Z" transform="translate(-768.408 -281.707)" fill="url(#linear-gradient-46)"/>
        </g>
        <g id="Group_55742-14" data-name="Group 55742" transform="translate(10.008 198.501)">
          <path id="Path_57820-14" data-name="Path 57820" d="M785.724,282.666l15.547-8.861,15.547,8.861h1.254l-16.8-9.576-16.8,9.576Z" transform="translate(-784.469 -273.091)" fill="url(#linear-gradient-47)"/>
        </g>
        <g id="Group_55743-14" data-name="Group 55743" transform="translate(46.117 198.501)">
          <path id="Path_57821-14" data-name="Path 57821" d="M843.671,282.666l15.547-8.861,15.547,8.861h1.254l-16.8-9.576-16.8,9.576Z" transform="translate(-842.417 -273.091)" fill="url(#linear-gradient-48)"/>
        </g>
        <g id="Group_55744-14" data-name="Group 55744" transform="translate(82.226 198.501)">
          <path id="Path_57822-14" data-name="Path 57822" d="M901.618,282.666l15.547-8.861,15.547,8.861h1.254l-16.8-9.576-16.8,9.576Z" transform="translate(-900.364 -273.091)" fill="url(#linear-gradient-49)"/>
        </g>
      </g>
    </g>
    <g id="Group_55800" data-name="Group 55800" transform="translate(3926.068 -1304.789)">
      <g id="Group_55750-15" data-name="Group 55750" transform="translate(0 0)">
        <g id="Group_55729-15" data-name="Group 55729" transform="translate(0 105.889)">
          <path id="Path_57805-15" data-name="Path 57805" d="M777.163,122.54l-8.755,4.99v.715l8.755-4.99L794.9,133.366v20.223L777.163,163.7l-8.755-4.99v.715l8.755,4.99,18.368-10.469V133.008Z" transform="translate(-768.408 -122.54)" fill="url(#linear-gradient-36)"/>
        </g>
        <g id="Group_55730-15" data-name="Group 55730" transform="translate(26.496 105.889)">
          <path id="Path_57806-15" data-name="Path 57806" d="M829.3,164.416l-18.368-10.469V133.009L829.3,122.54l18.368,10.469v20.938Zm-17.741-10.826L829.3,163.7l17.741-10.111V133.366L829.3,123.254l-17.741,10.112Z" transform="translate(-810.928 -122.54)" fill="url(#linear-gradient-37)"/>
        </g>
        <g id="Group_55731-15" data-name="Group 55731" transform="translate(62.605 105.889)">
          <path id="Path_57807-15" data-name="Path 57807" d="M887.244,164.416l-18.368-10.469V133.009l18.368-10.469,18.368,10.469v20.938ZM869.5,153.589,887.244,163.7l17.74-10.111V133.366l-17.74-10.112L869.5,133.366Z" transform="translate(-868.876 -122.54)" fill="url(#linear-gradient-38)"/>
        </g>
        <g id="Group_55732-15" data-name="Group 55732" transform="translate(0 142.06)">
          <path id="Path_57808-15" data-name="Path 57808" d="M768.408,181.339v.715l8.441,4.811v20.223l-8.441,4.811v.715l9.068-5.169V186.508Z" transform="translate(-768.408 -181.339)" fill="url(#linear-gradient-39)"/>
        </g>
        <g id="Group_55733-15" data-name="Group 55733" transform="translate(8.442 136.759)">
          <path id="Path_57809-15" data-name="Path 57809" d="M800.323,214.6,781.955,204.13V183.192l18.368-10.469,18.368,10.469V204.13Zm-17.741-10.826,17.741,10.112,17.741-10.112V183.549l-17.741-10.111-17.741,10.111Z" transform="translate(-781.955 -172.723)" fill="url(#linear-gradient-40)"/>
        </g>
        <g id="Group_55734-15" data-name="Group 55734" transform="translate(44.55 136.759)">
          <path id="Path_57810-15" data-name="Path 57810" d="M858.27,214.6,839.9,204.13V183.192l18.368-10.469,18.368,10.469V204.13ZM840.53,203.772l17.741,10.112,17.741-10.112V183.549L858.27,173.438,840.53,183.549Z" transform="translate(-839.902 -172.723)" fill="url(#linear-gradient-41)"/>
        </g>
        <g id="Group_55736-15" data-name="Group 55736" transform="translate(0 167.631)">
          <path id="Path_57812-15" data-name="Path 57812" d="M768.408,282.421l6.248,3.561h1.254l-7.5-4.276Z" transform="translate(-768.408 -245.536)" fill="url(#linear-gradient-42)"/>
          <path id="Path_57813-15" data-name="Path 57813" d="M777.163,222.907l-8.755,4.99v.715l8.755-4.99L794.9,233.733v20.223l-16.487,9.4h1.254l15.861-9.04V233.376Z" transform="translate(-768.408 -222.907)" fill="url(#linear-gradient-43)"/>
        </g>
        <g id="Group_55737-15" data-name="Group 55737" transform="translate(26.496 167.631)">
          <path id="Path_57814-15" data-name="Path 57814" d="M828.043,263.354l-16.487-9.4V233.733L829.3,223.622l17.741,10.112v20.223l-16.487,9.4H831.8l15.86-9.04V233.376L829.3,222.907l-18.368,10.469v20.938l15.861,9.04Z" transform="translate(-810.928 -222.907)" fill="url(#linear-gradient-44)"/>
        </g>
        <g id="Group_55738-15" data-name="Group 55738" transform="translate(62.605 167.631)">
          <path id="Path_57815-15" data-name="Path 57815" d="M885.99,263.354l-16.487-9.4V233.733l17.741-10.112,17.741,10.112v20.223l-16.487,9.4h1.254l15.861-9.04V233.376l-18.368-10.469-18.368,10.469v20.938l15.861,9.04Z" transform="translate(-868.876 -222.907)" fill="url(#linear-gradient-45)"/>
        </g>
        <g id="Group_55741-15" data-name="Group 55741" transform="translate(0 203.802)">
          <path id="Path_57819-15" data-name="Path 57819" d="M768.408,281.707v.715l6.247,3.561h1.254Z" transform="translate(-768.408 -281.707)" fill="url(#linear-gradient-46)"/>
        </g>
        <g id="Group_55742-15" data-name="Group 55742" transform="translate(10.008 198.501)">
          <path id="Path_57820-15" data-name="Path 57820" d="M785.724,282.666l15.547-8.861,15.547,8.861h1.254l-16.8-9.576-16.8,9.576Z" transform="translate(-784.469 -273.091)" fill="url(#linear-gradient-47)"/>
        </g>
        <g id="Group_55743-15" data-name="Group 55743" transform="translate(46.117 198.501)">
          <path id="Path_57821-15" data-name="Path 57821" d="M843.671,282.666l15.547-8.861,15.547,8.861h1.254l-16.8-9.576-16.8,9.576Z" transform="translate(-842.417 -273.091)" fill="url(#linear-gradient-48)"/>
        </g>
        <g id="Group_55744-15" data-name="Group 55744" transform="translate(82.226 198.501)">
          <path id="Path_57822-15" data-name="Path 57822" d="M901.618,282.666l15.547-8.861,15.547,8.861h1.254l-16.8-9.576-16.8,9.576Z" transform="translate(-900.364 -273.091)" fill="url(#linear-gradient-49)"/>
        </g>
      </g>
    </g>
    <g id="Group_55801" data-name="Group 55801" transform="translate(3998.068 -1304.789)">
      <g id="Group_55750-16" data-name="Group 55750" transform="translate(0 0)">
        <g id="Group_55729-16" data-name="Group 55729" transform="translate(0 105.889)">
          <path id="Path_57805-16" data-name="Path 57805" d="M777.163,122.54l-8.755,4.99v.715l8.755-4.99L794.9,133.366v20.223L777.163,163.7l-8.755-4.99v.715l8.755,4.99,18.368-10.469V133.008Z" transform="translate(-768.408 -122.54)" fill="url(#linear-gradient-36)"/>
        </g>
        <g id="Group_55730-16" data-name="Group 55730" transform="translate(26.496 105.889)">
          <path id="Path_57806-16" data-name="Path 57806" d="M829.3,164.416l-18.368-10.469V133.009L829.3,122.54l18.368,10.469v20.938Zm-17.741-10.826L829.3,163.7l17.741-10.111V133.366L829.3,123.254l-17.741,10.112Z" transform="translate(-810.928 -122.54)" fill="url(#linear-gradient-37)"/>
        </g>
        <g id="Group_55731-16" data-name="Group 55731" transform="translate(62.605 105.889)">
          <path id="Path_57807-16" data-name="Path 57807" d="M887.244,164.416l-18.368-10.469V133.009l18.368-10.469,18.368,10.469v20.938ZM869.5,153.589,887.244,163.7l17.74-10.111V133.366l-17.74-10.112L869.5,133.366Z" transform="translate(-868.876 -122.54)" fill="url(#linear-gradient-38)"/>
        </g>
        <g id="Group_55732-16" data-name="Group 55732" transform="translate(0 142.06)">
          <path id="Path_57808-16" data-name="Path 57808" d="M768.408,181.339v.715l8.441,4.811v20.223l-8.441,4.811v.715l9.068-5.169V186.508Z" transform="translate(-768.408 -181.339)" fill="url(#linear-gradient-39)"/>
        </g>
        <g id="Group_55733-16" data-name="Group 55733" transform="translate(8.442 136.759)">
          <path id="Path_57809-16" data-name="Path 57809" d="M800.323,214.6,781.955,204.13V183.192l18.368-10.469,18.368,10.469V204.13Zm-17.741-10.826,17.741,10.112,17.741-10.112V183.549l-17.741-10.111-17.741,10.111Z" transform="translate(-781.955 -172.723)" fill="url(#linear-gradient-40)"/>
        </g>
        <g id="Group_55734-16" data-name="Group 55734" transform="translate(44.55 136.759)">
          <path id="Path_57810-16" data-name="Path 57810" d="M858.27,214.6,839.9,204.13V183.192l18.368-10.469,18.368,10.469V204.13ZM840.53,203.772l17.741,10.112,17.741-10.112V183.549L858.27,173.438,840.53,183.549Z" transform="translate(-839.902 -172.723)" fill="url(#linear-gradient-41)"/>
        </g>
        <g id="Group_55736-16" data-name="Group 55736" transform="translate(0 167.631)">
          <path id="Path_57812-16" data-name="Path 57812" d="M768.408,282.421l6.248,3.561h1.254l-7.5-4.276Z" transform="translate(-768.408 -245.536)" fill="url(#linear-gradient-42)"/>
          <path id="Path_57813-16" data-name="Path 57813" d="M777.163,222.907l-8.755,4.99v.715l8.755-4.99L794.9,233.733v20.223l-16.487,9.4h1.254l15.861-9.04V233.376Z" transform="translate(-768.408 -222.907)" fill="url(#linear-gradient-43)"/>
        </g>
        <g id="Group_55737-16" data-name="Group 55737" transform="translate(26.496 167.631)">
          <path id="Path_57814-16" data-name="Path 57814" d="M828.043,263.354l-16.487-9.4V233.733L829.3,223.622l17.741,10.112v20.223l-16.487,9.4H831.8l15.86-9.04V233.376L829.3,222.907l-18.368,10.469v20.938l15.861,9.04Z" transform="translate(-810.928 -222.907)" fill="url(#linear-gradient-44)"/>
        </g>
        <g id="Group_55738-16" data-name="Group 55738" transform="translate(62.605 167.631)">
          <path id="Path_57815-16" data-name="Path 57815" d="M885.99,263.354l-16.487-9.4V233.733l17.741-10.112,17.741,10.112v20.223l-16.487,9.4h1.254l15.861-9.04V233.376l-18.368-10.469-18.368,10.469v20.938l15.861,9.04Z" transform="translate(-868.876 -222.907)" fill="url(#linear-gradient-45)"/>
        </g>
        <g id="Group_55741-16" data-name="Group 55741" transform="translate(0 203.802)">
          <path id="Path_57819-16" data-name="Path 57819" d="M768.408,281.707v.715l6.247,3.561h1.254Z" transform="translate(-768.408 -281.707)" fill="url(#linear-gradient-46)"/>
        </g>
        <g id="Group_55742-16" data-name="Group 55742" transform="translate(10.008 198.501)">
          <path id="Path_57820-16" data-name="Path 57820" d="M785.724,282.666l15.547-8.861,15.547,8.861h1.254l-16.8-9.576-16.8,9.576Z" transform="translate(-784.469 -273.091)" fill="url(#linear-gradient-47)"/>
        </g>
        <g id="Group_55743-16" data-name="Group 55743" transform="translate(46.117 198.501)">
          <path id="Path_57821-16" data-name="Path 57821" d="M843.671,282.666l15.547-8.861,15.547,8.861h1.254l-16.8-9.576-16.8,9.576Z" transform="translate(-842.417 -273.091)" fill="url(#linear-gradient-48)"/>
        </g>
        <g id="Group_55744-16" data-name="Group 55744" transform="translate(82.226 198.501)">
          <path id="Path_57822-16" data-name="Path 57822" d="M901.618,282.666l15.547-8.861,15.547,8.861h1.254l-16.8-9.576-16.8,9.576Z" transform="translate(-900.364 -273.091)" fill="url(#linear-gradient-49)"/>
        </g>
      </g>
    </g>
  </g>
</svg>
