<svg id="Component_1378_1" data-name="Component 1378 – 1" xmlns="http://www.w3.org/2000/svg" width="36" height="45" viewBox="0 0 36 45">
  <g id="Group_73883" data-name="Group 73883">
    <path id="notifications_FILL0_wght400_GRAD0_opsz48_1_" data-name="notifications_FILL0_wght400_GRAD0_opsz48 (1)" d="M160,214.25v-3.375h4.725V193.662a13.58,13.58,0,0,1,2.784-8.409,12,12,0,0,1,7.341-4.641v-1.631a2.763,2.763,0,0,1,.928-2.137,3.347,3.347,0,0,1,4.444,0,2.763,2.763,0,0,1,.928,2.137v1.631a12.116,12.116,0,0,1,7.369,4.641,13.491,13.491,0,0,1,2.813,8.409v17.213H196v3.375ZM178,197.656ZM178,221a4.362,4.362,0,0,1-3.15-1.322,4.289,4.289,0,0,1-1.35-3.178h9A4.513,4.513,0,0,1,178,221Zm-9.9-10.125h19.856V193.662a9.749,9.749,0,0,0-2.869-7.087,9.947,9.947,0,0,0-14.091,0,9.7,9.7,0,0,0-2.9,7.087Z" transform="translate(-160 -176)" fill="#295d93"/>
    <circle id="Ellipse_1438" data-name="Ellipse 1438" cx="7" cy="7" r="7" transform="translate(22)" fill="#ea7525"/>
  </g>
</svg>
