<svg id="search_FILL0_wght400_GRAD0_opsz48_1_" data-name="search_FILL0_wght400_GRAD0_opsz48 (1)" xmlns="http://www.w3.org/2000/svg" width="32" height="32" viewBox="0 0 32 32">
  <path id="search_FILL0_wght400_GRAD0_opsz48_1_2" data-name="search_FILL0_wght400_GRAD0_opsz48 (1)" d="M145.864,242.644l-9.531-9.545a8.715,8.715,0,0,1-2.767,1.6,10.189,10.189,0,1,1,6.682-9.558,9.874,9.874,0,0,1-.554,3.281,10.057,10.057,0,0,1-1.661,2.97l9.61,9.545a1.082,1.082,0,0,1,.356.821,1.217,1.217,0,0,1-.392.879,1.2,1.2,0,0,1-.882.36A1.136,1.136,0,0,1,145.864,242.644Zm-15.7-9.743a7.391,7.391,0,0,0,5.463-2.277,7.813,7.813,0,0,0,0-10.97,7.391,7.391,0,0,0-5.463-2.277,7.762,7.762,0,1,0,0,15.525Z" transform="translate(-118 -213)" fill="#295d93"/>
</svg>
