<svg id="Component_1379_1" data-name="Component 1379 – 1" xmlns="http://www.w3.org/2000/svg" xmlns:xlink="http://www.w3.org/1999/xlink" width="28.001" height="28" viewBox="0 0 28.001 28">
  <defs>
    <clipPath id="clip-path">
      <rect id="Rectangle_38043" data-name="Rectangle 38043" width="24.001" height="24" fill="none"/>
    </clipPath>
  </defs>
  <g id="Group_63804" data-name="Group 63804" transform="translate(2 2)" clip-path="url(#clip-path)">
    <path id="Path_75079" data-name="Path 75079" d="M20.122,0a3.863,3.863,0,0,1,2.9,1.177A3.792,3.792,0,0,1,24,3.753V3.77h0c0,.014,0,.029,0,.043V20.2A3.814,3.814,0,0,1,20.2,24H3.8A3.814,3.814,0,0,1,0,20.2V3.838A3.806,3.806,0,0,1,.946,1.211,3.855,3.855,0,0,1,3.878,0Z" transform="translate(0.001)" fill="#ea7525" fill-rule="evenodd"/>
    <path id="Path_75080" data-name="Path 75080" d="M30.064,12H13.751a2.653,2.653,0,0,0-2.088.845,2.7,2.7,0,0,0-.654,1.833h0c0,.006,0,.011,0,.017V18.37a3.469,3.469,0,0,1,1.686-.98v-.535a3.054,3.054,0,0,1,.641-1.906,2.171,2.171,0,0,1,1.684-.865h13.8a2.165,2.165,0,0,1,1.684.857,3.073,3.073,0,0,1,.641,1.915v.218a2.451,2.451,0,0,0,1.026-.655,2.689,2.689,0,0,0,0-3.6,2.741,2.741,0,0,0-2.1-.815Z" transform="translate(-9.917 -10.811)" fill="#295d93" fill-rule="evenodd"/>
    <path id="Path_75081" data-name="Path 75081" d="M32.828,65.364a3.877,3.877,0,0,1-2.774,1.055H13.814a2.511,2.511,0,0,0-2.157.938,3.581,3.581,0,0,0-.648,2.166v.4a1.606,1.606,0,0,0,.4.136c.221.03.528.016.878.029h6.438A3.693,3.693,0,0,1,21.573,71.3a4.116,4.116,0,0,1,0,5.253,3.911,3.911,0,0,1-2.848,1.267H12.288c-.32-.048-.718-.073-1.108-.167a.161.161,0,0,1-.071-.034v1.457a2.719,2.719,0,0,0,2.712,2.711h16.3a2.719,2.719,0,0,0,2.711-2.711V65.364Z" transform="translate(-9.917 -58.882)" fill="#295d93" fill-rule="evenodd"/>
    <path id="Path_75082" data-name="Path 75082" d="M72.619,134.459a1.676,1.676,0,1,0,1.671,1.671,1.684,1.684,0,0,0-1.671-1.671" transform="translate(-63.904 -121.124)" fill="#295d93" fill-rule="evenodd"/>
    <path id="Path_75083" data-name="Path 75083" d="M82.54,145.428a.585.585,0,1,0,.584.584.577.577,0,0,0-.584-.584" transform="translate(-73.826 -131.005)" fill="#ea7525" fill-rule="evenodd"/>
  </g>
</svg>
