<?xml version="1.0" encoding="UTF-8"?>
<svg id="Layer_2" data-name="Layer 2" xmlns="http://www.w3.org/2000/svg" viewBox="0 0 284.63 103.15">
  <g id="Layer_1-2" data-name="Layer 1">
    <g>
      <g>
        <g>
          <rect x="127.94" y="4.21" width="7.73" height="94.72" fill="#e97525"/>
          <rect x="137.89" y="12.23" width="3.83" height="79.19" fill="#e97525"/>
        </g>
        <g>
          <rect x="6.05" y="4.21" width="7.73" height="94.72" transform="translate(19.83 103.15) rotate(-180)" fill="#e97525"/>
          <rect x="0" y="12.23" width="3.83" height="79.19" transform="translate(3.83 103.66) rotate(-180)" fill="#e97525"/>
        </g>
        <g>
          <rect x="16.39" width="108.94" height="103.15" fill="#e97525"/>
          <path d="m100.89,16.2c-.5-.33-1.14-.4-1.69-.17l-38.44,15.85c-.68.28-1.12.95-1.12,1.68v33.62c-2.61-2.47-6.21-3.6-9.76-3.05-3.55.55-6.65,2.71-8.39,5.85-1.74,3.14-1.94,6.91-.52,10.22,1.42,3.3,4.28,5.76,7.76,6.67s7.18.15,10.02-2.04c2.85-2.19,4.52-5.58,4.52-9.17v-28.29l34.81-14.36v24.36c-2.61-2.47-6.21-3.6-9.76-3.05-3.55.55-6.65,2.71-8.39,5.85-1.74,3.14-1.93,6.91-.52,10.22,1.42,3.3,4.28,5.76,7.76,6.67s7.18.15,10.02-2.04c2.85-2.19,4.52-5.58,4.52-9.17V17.72c0-.61-.3-1.18-.81-1.51h0Z" fill="#fff"/>
        </g>
      </g>
      <path d="m154.97,38.56c0-1.87,1.48-3.35,3.67-3.35s3.64,1.48,3.64,3.35-1.48,3.31-3.64,3.31-3.67-1.48-3.67-3.31Z" fill="#e97525"/>
      <rect x="155.54" y="43.96" width="6.16" height="20.09" fill="#275d93"/>
      <path d="m169.8,38.78h7.27l7.09,17.49,7.02-17.49h7.23v25.27h-6.15v-15.15l-5.65,15.15h-4.97l-5.69-15.19v15.19h-6.16v-25.27Z" fill="#275d93"/>
      <path d="m202.74,38.78h6.16v15.12c0,2.99,1.48,4.71,4.39,4.71s4.46-1.73,4.46-4.71v-15.12h6.16v15.08c0,6.98-4.9,10.44-10.73,10.44s-10.44-3.46-10.44-10.44v-15.08Z" fill="#275d93"/>
      <path d="m237.37,64.3c-5.44,0-9.68-2.7-9.86-7.81h6.55c.18,1.94,1.4,2.88,3.13,2.88s2.95-.9,2.95-2.38c0-4.68-12.63-2.16-12.56-11.12,0-4.79,3.92-7.45,9.21-7.45s9.21,2.74,9.47,7.56h-6.66c-.11-1.62-1.26-2.59-2.92-2.63-1.48-.04-2.59.72-2.59,2.3,0,4.39,12.49,2.41,12.49,10.87,0,4.25-3.31,7.78-9.21,7.78Z" fill="#275d93"/>
      <path d="m250.36,38.78h6.16v25.27h-6.16v-25.27Z" fill="#275d93"/>
      <path d="m272.65,38.49c6.01,0,10.55,3.38,11.99,8.85h-6.77c-1.04-2.16-2.95-3.24-5.29-3.24-3.78,0-6.37,2.81-6.37,7.27s2.59,7.27,6.37,7.27c2.34,0,4.25-1.08,5.29-3.24h6.77c-1.44,5.47-5.98,8.82-11.99,8.82-7.45,0-12.71-5.29-12.71-12.85s5.26-12.89,12.71-12.89Z" fill="#275d93"/>
    </g>
  </g>
</svg>