<!-- Generated by IcoMoon.io -->
<svg version="1.1" xmlns="http://www.w3.org/2000/svg" width="35" height="32" viewBox="0 0 35 32">
    <title>account-status-close</title>
    <path fill="#eb1d1d"
        d="M29.983 15.892c0 8.28-6.712 14.992-14.992 14.992s-14.992-6.712-14.992-14.992c0-8.28 6.712-14.992 14.992-14.992s14.992 6.712 14.992 14.992z"></path>
    <path fill="#000" opacity="0.2"
        d="M35.34 3.565c-0.042-0.602-0.42-1.107-0.947-1.329l-0.010-0.004c-1.451-0.532-3.131-0.89-4.878-1l-0.052-0.003c-3.887-0.334-4.799 0.251-5.099 0.443-2.898 1.871-5.417 3.811-7.765 5.938l0.050-0.045c-0.662-1.355-1.22-2.935-1.591-4.584l-0.028-0.147c-0.206-1.1-1.4-1.521-1.792-1.655-1.494-0.454-3.213-0.722-4.992-0.735l-0.007-0c-3.463-0.099-4.175 0.513-4.443 0.743-0.335 0.279-0.546 0.696-0.546 1.163 0 0.096 0.009 0.19 0.026 0.281l-0.001-0.009c0.761 4.061 3.225 8.607 5.868 12.97-2.137 2.608-4.184 5.324-6.17 7.962-0.836 1.108-1.699 2.256-2.555 3.368-0.179 0.231-0.286 0.525-0.286 0.844 0 0.469 0.233 0.883 0.589 1.134l0.004 0.003c1.012 0.775 4.327 1.087 5.318 1.16l0.131 0.010c4.552 0.334 5.234-0.557 5.526-0.94 0.861-1.125 1.727-2.274 2.564-3.387l0.978-1.295c1.766 2.315 3.704 4.346 5.841 6.146l0.058 0.047c1.39 0.806 3.057 1.286 4.834 1.296h0.003c0.48 0.055 1.035 0.087 1.598 0.087 1.285 0 2.532-0.164 3.72-0.472l-0.103 0.023c0.594-0.184 1.039-0.676 1.151-1.285l0.002-0.010c0.008-0.059 0.012-0.127 0.012-0.197 0-0.528-0.26-0.994-0.66-1.279l-0.005-0.003c-2.99-2.372-6.489-6.628-10.15-12.341 3.734-4.503 8.054-8.345 12.883-11.468l0.22-0.134c0.423-0.258 0.702-0.717 0.702-1.241 0-0.020-0-0.039-0.001-0.059l0 0.003z"></path>
    <path fill="#fff"
        d="M33.41 1.902c-0.086-0.592-0.496-1.071-1.041-1.256l-0.011-0.003c-1.429-0.407-3.071-0.641-4.767-0.641-0.078 0-0.156 0.001-0.234 0.002l0.012-0c-3.901-0.049-4.769 0.601-5.054 0.814-2.68 2.020-5.053 4.132-7.243 6.42l-0.020 0.021c-0.764-1.318-1.429-2.843-1.915-4.445l-0.041-0.155c-0.287-1.087-1.506-1.413-1.907-1.521-1.153-0.26-2.476-0.408-3.835-0.408-0.424 0-0.845 0.015-1.262 0.043l0.056-0.003c-3.461 0.154-4.129 0.816-4.377 1.065-0.286 0.275-0.464 0.662-0.464 1.090 0 0.134 0.018 0.265 0.050 0.389l-0.002-0.011c1.059 3.994 3.845 8.348 6.794 12.507-1.941 2.758-3.785 5.618-5.572 8.392-0.752 1.167-1.53 2.373-2.301 3.551-0.143 0.215-0.229 0.479-0.229 0.763 0 0.505 0.27 0.947 0.673 1.189l0.006 0.003c1.066 0.699 4.394 0.761 5.388 0.768h0.131c4.564 0 5.179-0.939 5.443-1.341 0.776-1.184 1.556-2.39 2.31-3.565l0.879-1.363c1.885 2.134 3.961 4.022 6.225 5.668l0.11 0.076c1.245 0.607 2.708 0.962 4.255 0.962 0.234 0 0.466-0.008 0.695-0.024l-0.031 0.002c0.155 0.006 0.337 0.009 0.519 0.009 1.664 0 3.263-0.275 4.756-0.782l-0.104 0.031c0.574-0.225 0.987-0.746 1.054-1.369l0.001-0.007c0.002-0.026 0.002-0.055 0.002-0.086 0-0.566-0.3-1.062-0.75-1.338l-0.007-0.004c-3.151-2.147-6.954-6.137-11.023-11.567 3.457-4.837 7.494-8.972 12.074-12.424l0.143-0.103c0.377-0.265 0.62-0.698 0.62-1.188 0-0.056-0.003-0.111-0.009-0.165l0.001 0.007z"></path>
    <path fill="#eb1d1d"
        d="M23.069 1.825c-3.069 2.313-5.775 4.792-8.228 7.505l-0.045 0.050c-1.161-1.84-2.154-3.96-2.87-6.203l-0.054-0.197c-0.377-1.42-9.617-1.177-9.304 0 1.111 4.188 4.303 8.894 7.123 12.828-2.934 4.107-5.601 8.416-8.367 12.635-0.515 0.787 8.489 1.245 9.306 0 1.369-2.091 2.716-4.204 4.080-6.302 2.135 2.531 4.5 4.756 7.096 6.687l0.112 0.079c1.991 1.355 10.616 0.594 8.973-0.524-4.305-2.934-8.777-8.387-11.876-12.599 3.652-5.252 7.962-9.728 12.881-13.44l0.147-0.106c1.23-0.919-7.594-1.444-8.973-0.413z"></path>
</svg>